<svg width="713" height="302" xmlns="http://www.w3.org/2000/svg" xmlns:xlink="http://www.w3.org/1999/xlink" xml:space="preserve" overflow="hidden"><defs><clipPath id="clip0"><rect x="282" y="210" width="713" height="302"/></clipPath></defs><g clip-path="url(#clip0)" transform="translate(-282 -210)"><path d="M327.042 152.573 331.841 152.573 331.841 169.17C331.841 174.269 334.441 176.169 339.14 176.169 342.139 176.169 344.239 174.369 344.239 170.47L344.239 152.573 348.838 152.573 348.838 169.47C348.838 176.169 344.939 179.868 337.44 179.868 330.941 179.868 327.042 176.769 327.042 170.67L327.042 152.573ZM378.633 179.968 364.335 159.472 364.335 179.468 359.936 179.468 359.936 152.673 364.735 152.673 378.333 172.569 378.333 152.673 382.632 152.673 382.632 179.168 378.633 179.968ZM399.229 179.368 394.43 179.368 394.43 152.573 399.229 152.573 399.229 179.368ZM407.928 152.873 412.827 152.073 420.525 174.269 428.024 152.573 432.923 152.573 422.725 179.168 417.926 179.968 407.928 152.873ZM441.622 152.573 458.419 152.573 458.019 156.172C454.219 156.072 450.32 156.072 446.521 155.972L446.521 163.971 457.219 163.971 456.719 167.17 446.521 166.97 446.521 175.869 459.219 175.669 458.819 179.368 441.722 179.368 441.722 152.573ZM473.316 168.27 473.316 179.368 468.517 179.368 468.517 152.573 477.715 152.573C483.514 152.573 486.914 154.873 486.914 159.372 486.914 163.071 484.814 165.571 482.014 166.97L489.113 179.368 483.714 179.368 478.115 168.17C477.315 168.27 476.615 168.37 475.916 168.37 475.116 168.37 474.216 168.27 473.316 168.27ZM481.914 160.771C481.914 157.572 480.115 155.872 476.016 155.872 475.016 155.872 474.116 155.872 473.216 155.972L473.216 165.071C474.316 165.171 475.416 165.271 476.815 165.271 479.515 165.071 481.914 163.971 481.914 160.771ZM497.612 159.372C497.612 155.172 501.711 151.973 507.51 151.973 510.709 151.973 513.709 152.373 515.609 152.973L514.709 156.872C512.109 155.972 509.31 155.372 506.21 155.372 503.711 155.372 502.011 156.472 502.011 158.672 502.011 160.771 503.611 161.971 507.91 163.671 514.709 166.37 516.208 168.37 516.208 171.87 516.208 176.669 511.809 179.968 504.91 179.968 502.111 179.968 499.011 179.468 497.012 178.868L497.912 174.869C500.611 175.869 503.611 176.569 507.01 176.569 509.41 176.569 511.509 175.369 511.509 173.269 511.509 170.97 510.309 169.57 505.31 167.67 499.911 165.471 497.612 163.571 497.612 159.372ZM530.906 179.368 526.107 179.368 526.107 152.573 530.906 152.573 530.906 179.368ZM551.902 152.573C560.201 152.573 565.5 157.072 565.5 165.171 565.5 174.169 558.701 179.368 549.702 179.368L542.604 179.368 542.604 152.573 551.902 152.573ZM547.403 175.869C548.603 175.969 550.502 176.069 552.102 176.069 556.401 176.069 560.501 173.569 560.501 166.071 560.501 158.972 555.901 156.072 550.302 156.072L547.303 156.072 547.303 175.869ZM588.896 172.069 578.397 172.069 575.798 179.368 570.999 179.368 581.297 152.673 586.296 151.973 596.494 179.268 591.395 179.268 588.896 172.069ZM583.596 157.072 579.597 168.47 587.596 168.47 583.596 157.072ZM614.591 152.573C622.889 152.573 628.189 157.072 628.189 165.171 628.189 174.169 621.39 179.368 612.391 179.368L605.293 179.368 605.293 152.573 614.591 152.573ZM610.092 175.869C611.292 175.969 613.191 176.069 614.791 176.069 619.09 176.069 623.189 173.569 623.189 166.071 623.189 158.972 618.59 156.072 612.991 156.072L609.992 156.072 609.992 175.869Z" fill="#FFFFFF" transform="matrix(1.00062 0 0 1 235.459 147.392)"/><path d="M362.636 256.555 335.54 217.761 335.54 255.555 327.242 255.555 327.242 204.864 336.34 204.864 362.136 242.457 362.136 204.864 370.334 204.864 370.334 254.955 362.636 256.555ZM417.526 241.657 397.629 241.657 392.73 255.555 383.732 255.555 403.328 205.064 412.727 203.864 432.123 255.555 422.525 255.555 417.526 241.657ZM407.528 213.362 399.929 234.958 415.126 234.958 407.528 213.362ZM481.914 252.955C478.215 255.055 471.316 256.555 465.717 256.555 451.12 256.555 440.422 247.756 440.422 230.659 440.422 214.862 451.02 203.764 467.317 203.764 473.616 203.764 479.115 204.764 481.515 205.963L479.315 213.062C476.016 211.962 470.716 210.463 464.618 210.463 457.419 210.463 449.82 214.762 449.82 229.259 449.82 244.557 459.418 249.556 468.317 249.556 473.016 249.556 477.715 248.256 480.015 246.856L481.914 252.955ZM505.61 255.455 496.512 255.455 496.512 204.764 505.61 204.764 505.61 255.455ZM544.603 256.555C530.906 256.555 521.407 247.356 521.407 231.159 521.407 213.862 532.805 203.764 548.803 203.764 562.5 203.764 571.998 213.062 571.998 229.259 572.099 246.356 560.701 256.555 544.603 256.555ZM545.303 210.463C537.305 210.463 530.906 215.562 530.906 228.759 530.906 243.857 537.905 249.856 548.203 249.856 556.301 249.856 562.7 244.857 562.7 231.459 562.6 216.462 555.501 210.463 545.303 210.463ZM623.089 256.555 595.994 217.761 595.994 255.555 587.696 255.555 587.696 204.864 596.794 204.864 622.59 242.457 622.59 204.864 630.788 204.864 630.788 254.955 623.089 256.555ZM678.08 241.657 658.183 241.657 653.284 255.555 644.286 255.555 663.882 204.964 673.281 203.764 692.677 255.455 683.079 255.455 678.08 241.657ZM667.981 213.362 660.383 234.958 675.58 234.958 667.981 213.362ZM706.175 204.764 715.273 204.764 715.273 248.856 737.369 248.556 736.469 255.455 706.175 255.455 706.175 204.764Z" fill="#FFFFFF" transform="matrix(1.00062 0 0 1 235.459 147.392)"/><path d="M337.14 281.45C345.439 281.45 350.738 285.949 350.738 294.048 350.738 303.046 343.939 308.245 334.941 308.245L327.842 308.245 327.842 281.45 337.14 281.45ZM332.641 304.646C333.841 304.746 335.74 304.846 337.34 304.846 341.639 304.846 345.739 302.346 345.739 294.848 345.739 287.749 341.139 284.849 335.54 284.849L332.541 284.849 332.541 304.646ZM360.236 281.45 377.033 281.45 376.633 285.049C372.834 284.949 368.935 284.949 365.135 284.849L365.135 292.848 375.833 292.848 375.333 296.047 365.135 295.848 365.135 304.746 377.833 304.546 377.433 308.245 360.336 308.245 360.336 281.45Z" fill="#FFFFFF" transform="matrix(1.00062 0 0 1 235.459 147.392)"/><path d="M420.725 306.846C418.726 307.945 415.126 308.745 412.127 308.745 404.428 308.745 398.829 304.146 398.829 295.048 398.829 286.649 404.428 280.85 413.027 280.85 416.326 280.85 419.226 281.35 420.525 281.95L419.426 285.749C417.726 285.149 414.926 284.35 411.627 284.35 407.828 284.35 403.828 286.649 403.828 294.348 403.828 302.446 408.927 305.046 413.627 305.046 416.126 305.046 418.626 304.346 419.826 303.646L420.725 306.846ZM439.522 308.745C432.323 308.745 427.224 303.846 427.224 295.348 427.224 286.249 433.223 280.85 441.722 280.85 448.92 280.85 454.019 285.749 454.019 294.348 454.019 303.346 448.021 308.745 439.522 308.745ZM439.822 284.45C435.623 284.45 432.223 287.149 432.223 294.148 432.223 302.146 435.923 305.346 441.322 305.346 445.621 305.346 449.02 302.746 449.02 295.648 449.02 287.549 445.321 284.45 439.822 284.45ZM463.718 281.45 468.517 281.45 468.517 304.746 480.215 304.546 479.715 308.245 463.718 308.245 463.718 281.45ZM498.712 308.745C491.513 308.745 486.414 303.846 486.414 295.348 486.414 286.249 492.413 280.85 500.911 280.85 508.11 280.85 513.209 285.749 513.209 294.348 513.109 303.346 507.11 308.745 498.712 308.745ZM499.011 284.45C494.812 284.45 491.413 287.149 491.413 294.148 491.413 302.146 495.112 305.346 500.511 305.346 504.81 305.346 508.21 302.746 508.21 295.648 508.21 287.549 504.411 284.45 499.011 284.45ZM527.506 287.449 525.507 308.145 521.008 308.145 524.307 281.35 529.406 281.35 537.705 302.746 545.703 281.35 550.802 281.35 554.002 308.145 549.303 308.145 547.203 287.349 539.704 307.345 539.504 307.345 539.504 307.445 535.305 308.145 527.506 287.449ZM564.2 281.45 572.898 281.45C578.797 281.45 581.997 283.75 581.997 287.749 581.997 290.748 580.097 292.748 577.698 294.048 580.697 294.548 583.996 296.247 583.996 300.247 583.996 305.046 579.597 308.145 572.099 308.145L564.3 308.145 564.3 281.45ZM577.298 289.149C577.298 286.349 575.798 284.65 571.199 284.65 570.699 284.65 569.799 284.65 568.999 284.749L568.999 293.048C569.999 293.048 570.999 293.148 571.799 293.148 575.998 293.148 577.298 291.548 577.298 289.149ZM579.097 300.847C579.097 297.747 576.598 296.047 572.298 296.047 571.399 296.047 570.099 296.147 568.999 296.147L568.999 304.846C570.499 304.946 572.298 304.946 573.998 304.946 576.798 304.846 579.097 303.846 579.097 300.847ZM598.194 308.245 593.395 308.245 593.395 281.45 598.194 281.45 598.194 308.245ZM624.389 300.847 613.891 300.847 611.292 308.145 606.492 308.145 616.791 281.45 621.79 280.75 631.988 308.045 626.889 308.045 624.389 300.847ZM619.09 285.949 615.091 297.347 623.089 297.347 619.09 285.949Z" fill="#FFFFFF" transform="matrix(1.00062 0 0 1 235.459 147.392)"/><path d="M277.751 183.367C277.751 173.469 273.052 165.071 265.453 161.371L264.753 161.071 265.053 161.771C265.253 162.271 265.253 162.671 265.253 163.171 265.253 165.571 263.853 167.97 262.253 170.67 259.854 174.769 256.754 179.768 256.754 187.667 256.754 198.965 263.353 210.363 272.852 215.162L273.451 215.462 273.152 214.862C272.652 213.662 272.352 212.162 272.352 210.863 272.352 206.463 273.551 202.064 274.851 197.465 276.451 192.866 277.751 188.167 277.751 183.367ZM265.753 169.67C264.753 173.969 263.653 181.168 263.553 184.867 263.453 188.467 263.753 193.966 264.353 196.665L264.753 198.665 264.853 196.665C265.153 192.566 265.553 188.467 265.853 184.967 266.553 177.768 267.253 172.869 268.152 169.17 268.952 172.769 269.152 177.868 269.152 180.168 269.152 185.967 268.952 192.966 267.653 202.864L267.653 202.864C270.152 194.366 271.752 185.667 271.752 180.168 271.752 176.469 271.352 171.47 270.752 168.47 273.551 172.369 275.051 177.568 275.051 183.467 275.051 187.967 273.751 192.466 272.452 196.865 271.152 201.264 269.852 205.863 269.852 210.563 262.853 204.364 259.354 196.665 259.354 187.667 259.454 181.668 261.654 176.569 265.753 169.67Z" fill="#FFFFFF" transform="matrix(1.00062 0 0 1 235.459 147.392)"/><path d="M223.56 145.874C223.56 149.174 225.46 152.273 227.26 153.773L227.66 154.073 227.76 153.573C228.26 150.373 233.459 146.074 240.157 145.074L240.257 145.074 240.357 145.074C245.356 141.175 247.556 134.176 247.556 128.877 247.556 121.678 244.057 116.779 240.657 112.08 238.958 109.681 237.258 107.281 235.958 104.581 236.958 104.981 238.158 105.181 239.657 105.181 244.057 105.181 247.356 101.882 247.356 97.5827 247.356 91.8837 242.657 87.6844 236.258 87.6844 228.16 87.6844 220.061 94.6832 220.061 110.38 220.061 114.28 220.761 127.677 229.659 138.076 225.86 139.075 223.56 142.175 223.56 145.874ZM238.258 101.482C238.958 100.882 239.258 99.9823 239.258 99.0824 239.258 97.3827 238.058 95.683 235.858 95.683 233.759 95.683 232.259 97.3827 232.259 99.7823 232.259 104.182 235.058 108.181 237.958 112.48 241.357 117.379 244.857 122.478 244.857 128.877 244.857 131.977 243.957 136.276 241.957 139.175 242.457 127.977 239.158 122.478 235.958 117.179 234.158 114.18 231.859 111.28 230.659 107.281L230.659 107.281C231.459 112.08 233.059 115.48 234.658 118.879 237.058 123.978 239.558 129.177 239.058 139.075 226.56 117.879 226.36 106.581 227.66 99.0824L227.96 97.0828 227.16 98.9824C223.16 107.881 226.46 121.978 236.858 141.075 232.859 140.475 229.659 141.875 228.26 144.874L227.86 145.874 228.659 145.174C230.759 143.575 233.559 143.075 235.958 143.874 231.059 145.074 228.759 147.174 226.86 149.973 226.16 148.974 225.76 147.474 225.76 145.874 225.76 142.475 228.16 140.175 232.459 139.175L232.859 139.075 232.559 138.775C223.86 128.377 222.061 117.579 222.061 110.38 222.061 96.3829 229.259 90.084 235.958 90.084 241.157 90.084 244.457 93.0835 244.457 97.6827 244.457 100.782 242.157 103.182 239.358 103.182 237.658 103.182 236.358 102.982 235.558 102.482 236.958 102.282 237.758 101.882 238.258 101.482Z" fill="#FFFFFF" transform="matrix(1.00062 0 0 1 235.459 147.392)"/><path d="M256.055 154.673 256.155 154.673C259.954 154.673 263.653 157.272 267.453 159.972 271.752 163.071 276.251 166.271 281.65 166.271 287.249 166.271 291.448 162.471 291.448 157.472 291.448 152.173 287.349 148.974 283.45 148.974 280.85 148.974 279.051 150.273 278.651 152.373 277.551 151.273 276.351 150.173 274.551 149.373 280.25 146.074 283.45 139.475 282.45 133.276L282.45 133.176 282.35 133.076C281.75 132.776 279.95 132.277 276.851 132.277 273.651 132.277 270.052 133.476 267.553 135.276 267.453 131.277 266.453 128.677 265.453 126.478 264.653 124.478 263.853 122.578 263.853 119.879 263.853 118.579 264.053 117.079 264.453 115.579L264.553 115.28 264.253 115.28C256.954 115.38 249.356 123.178 249.356 135.876 249.156 142.475 251.955 149.973 256.055 154.673L256.055 154.673ZM260.754 118.179C260.854 118.179 260.954 118.079 260.954 118.079 261.154 117.979 261.454 117.879 261.654 117.879 261.454 118.579 261.354 119.579 261.354 120.479 261.354 122.678 262.054 124.578 262.853 126.578 263.853 128.977 264.953 131.777 264.953 135.776 264.953 138.175 264.753 139.775 264.353 141.075L263.853 142.675 264.853 141.275C268.152 136.776 272.252 134.476 276.951 134.476 278.151 134.476 279.051 134.576 280.05 134.776 280.25 139.675 277.551 145.974 269.352 149.373L268.452 149.773 269.352 149.873C273.951 150.573 275.951 152.573 277.551 154.073 278.751 155.272 279.75 156.272 281.55 156.272 283.35 156.272 284.65 154.973 284.65 153.173 284.65 152.373 284.35 151.773 283.75 151.273 283.65 151.173 283.45 151.073 283.35 150.973 286.749 150.973 288.749 154.173 288.749 157.272 288.749 160.971 285.749 163.671 281.55 163.671 277.151 163.671 272.852 160.771 268.752 157.872 266.753 156.472 264.553 155.072 262.453 153.973 264.453 153.973 267.852 154.173 270.852 156.072L271.452 156.472C276.951 159.972 281.75 163.071 285.249 158.772L286.649 157.072 284.849 158.372C281.85 160.671 278.951 158.672 274.451 155.772 273.551 155.172 272.752 154.673 271.752 154.073 268.952 152.273 264.853 152.073 262.653 151.973 266.953 149.573 271.452 146.174 273.651 143.475L274.651 142.275 273.251 143.075C272.252 143.674 271.252 144.274 270.252 144.974 267.453 146.774 264.553 148.574 261.454 150.173 264.553 145.874 270.052 141.175 275.951 137.476L277.551 136.476 275.751 136.976C270.152 138.575 263.853 143.974 259.654 148.874 260.554 145.274 261.954 138.076 261.354 131.677L261.154 129.477 260.854 131.677C260.054 137.276 258.754 143.175 257.354 148.174 255.955 139.575 256.454 131.277 258.654 122.878L259.054 121.278 258.154 122.678C254.555 128.177 253.555 136.476 254.855 148.574 253.155 145.574 251.555 140.175 251.555 135.676 251.655 126.977 254.955 120.579 260.754 118.179Z" fill="#FFFFFF" transform="matrix(1.00062 0 0 1 235.459 147.392)"/><path d="M175.969 155.372C176.969 155.372 177.868 154.473 178.668 152.673L179.068 151.873 178.268 152.373C178.068 152.473 177.868 152.573 177.768 152.673 177.968 152.373 178.168 152.073 178.368 151.673L178.768 150.973 178.068 151.373C175.869 152.473 174.969 153.373 174.969 154.573 174.869 154.973 175.169 155.372 175.969 155.372Z" fill="#FFFFFF" transform="matrix(1.00062 0 0 1 235.459 147.392)"/><path d="M288.349 212.162C286.549 210.463 284.45 209.663 282.15 209.763 278.951 209.863 276.851 211.762 276.851 214.562 276.851 216.762 278.451 218.461 280.45 218.461 280.85 218.461 281.15 218.461 281.45 218.361 280.25 219.761 277.951 219.861 276.951 219.861 270.552 219.861 264.353 215.462 261.254 208.663L260.954 207.963 260.754 208.763C260.254 211.163 259.954 213.762 259.954 216.762 259.954 223.06 261.754 228.359 265.253 231.959 268.352 235.258 272.652 237.058 277.251 237.058 285.949 237.058 292.148 230.759 292.148 222.161 292.248 218.161 290.848 214.462 288.349 212.162ZM277.151 229.859C281.55 229.859 285.149 227.06 286.549 222.461L287.249 220.161 286.049 222.261C284.05 225.76 281.35 227.26 277.151 227.26 271.852 227.26 266.453 222.96 264.253 217.061 267.453 219.861 271.252 222.361 277.051 222.361 281.75 222.361 285.049 219.661 285.049 215.762 285.049 213.662 283.75 212.062 281.95 211.962 282.05 211.962 282.15 211.962 282.25 211.962 286.449 211.962 289.749 216.462 289.749 222.161 289.749 229.159 284.45 234.558 277.351 234.558 269.552 234.558 264.153 229.259 262.653 220.161 265.853 226.26 271.152 229.859 277.151 229.859Z" fill="#FFFFFF" transform="matrix(1.00062 0 0 1 235.459 147.392)"/><path d="M171.37 235.258C173.969 233.359 173.369 231.459 172.469 229.759L168.97 222.161 167.97 222.161 170.67 229.859C170.57 230.159 170.47 230.459 170.37 230.859 170.07 231.559 169.77 232.459 169.97 233.259 168.97 232.959 167.97 233.259 167.07 233.559 166.47 233.759 165.871 233.958 165.271 233.958L164.671 233.958 165.071 234.358C166.271 235.658 167.27 236.358 168.47 236.358 169.37 236.458 170.27 236.058 171.37 235.258Z" fill="#FFFFFF" transform="matrix(1.00062 0 0 1 235.459 147.392)"/><path d="M165.971 232.259C166.37 232.559 166.87 232.659 167.37 232.659 167.67 232.659 167.97 232.559 168.27 232.459L168.27 232.459C168.97 232.159 169.67 231.659 169.67 230.659 169.67 228.659 167.77 227.16 166.071 226.36L166.071 217.561 165.171 217.561 165.171 217.761C164.871 222.361 164.771 224.96 164.671 226.56 164.571 228.06 164.571 228.659 164.571 229.159 164.471 230.459 165.071 231.659 165.971 232.259Z" fill="#FFFFFF" transform="matrix(1.00062 0 0 1 235.459 147.392)"/><path d="M181.568 227.36C184.367 227.36 186.967 225.56 187.567 223.36L192.466 216.062 191.366 216.062 186.167 222.76C185.867 222.86 185.567 222.96 185.267 223.16 183.767 223.76 182.268 224.36 181.568 225.26 180.968 224.36 179.368 223.76 177.968 223.16 177.668 223.06 177.269 222.86 176.969 222.76L171.77 216.062 170.67 216.062 175.569 223.16C176.169 225.66 178.668 227.36 181.568 227.36Z" fill="#FFFFFF" transform="matrix(1.00062 0 0 1 235.459 147.392)"/><path d="M174.969 237.858 174.969 237.858C176.069 236.558 176.669 235.358 176.569 234.158 176.469 233.159 175.969 232.159 174.969 231.259L174.569 230.859 174.569 231.459C174.569 231.959 174.169 232.659 173.869 233.359 173.369 234.258 172.869 235.258 173.069 236.058 172.169 235.958 171.27 236.458 170.47 236.958 169.77 237.358 169.17 237.758 168.67 237.758L168.17 237.758 168.47 238.158C169.37 239.358 170.27 239.957 171.37 239.957 171.37 239.957 171.47 239.957 171.47 239.957 172.569 239.857 173.769 239.158 174.969 237.858ZM173.769 236.658 173.769 236.658 173.769 236.658 173.769 236.658Z" fill="#FFFFFF" transform="matrix(1.00062 0 0 1 235.459 147.392)"/><path d="M181.568 223.26C184.067 223.26 186.467 221.661 187.367 219.461L190.866 212.862 189.766 212.862 186.367 218.361C186.067 218.461 185.767 218.661 185.367 218.761 183.867 219.361 182.268 219.961 181.468 221.061 180.768 219.961 179.168 219.361 177.668 218.761 177.269 218.661 176.969 218.461 176.669 218.361L173.069 212.862 171.969 212.862 175.769 219.361C176.369 221.661 178.768 223.26 181.568 223.26Z" fill="#FFFFFF" transform="matrix(1.00062 0 0 1 235.459 147.392)"/><path d="M233.259 241.957C232.159 241.957 231.059 242.257 229.859 242.557 228.559 242.857 227.26 243.257 225.86 243.257 220.161 243.257 216.362 240.957 213.462 235.958L213.362 235.858 210.263 235.858 208.063 238.958 208.163 239.058C208.963 240.457 209.163 241.657 209.163 242.557 209.163 243.857 208.663 245.057 208.063 246.556 207.063 249.056 205.863 252.155 205.863 257.254 205.863 262.753 207.763 266.453 209.263 269.352 210.363 271.452 211.263 273.152 211.263 275.051 211.263 275.751 210.863 276.451 210.063 276.851L209.863 276.951 211.063 279.85 216.262 279.85 236.458 248.256C236.758 247.756 237.258 246.656 237.258 245.556 237.058 243.557 235.358 241.957 233.259 241.957ZM228.06 246.356 228.06 253.855 226.36 256.255 226.36 246.556C226.96 246.556 227.56 246.456 228.06 246.356ZM229.859 245.956C230.259 245.856 230.659 245.656 230.959 245.556 231.359 245.356 231.659 245.256 231.859 245.256 232.159 245.256 232.459 245.456 232.659 245.756 232.859 246.156 232.859 246.556 232.659 246.856L229.759 251.055 229.759 245.956ZM224.56 246.656 224.56 259.054 222.86 261.454 222.86 246.556C223.56 246.656 224.06 246.656 224.56 246.656ZM221.161 246.256 221.161 264.153 219.361 266.853 219.361 245.656C219.461 245.656 219.561 245.756 219.761 245.756 220.061 245.956 220.561 246.056 221.161 246.256ZM209.563 256.555C209.563 252.155 210.463 249.556 211.263 247.056 211.962 245.157 212.562 243.357 212.662 240.957L213.962 242.257 213.962 270.952C213.562 269.952 213.162 269.052 212.662 268.052 211.163 265.153 209.563 261.954 209.563 256.555ZM217.561 244.757 217.561 269.452 215.762 272.152 215.762 243.657C216.362 244.157 217.061 244.557 217.561 244.757Z" fill="#FFFFFF" transform="matrix(1.00062 0 0 1 235.459 147.392)"/><path d="M181.568 215.662C182.668 215.662 183.767 214.462 183.767 213.362 183.767 212.362 183.467 211.662 182.968 210.763 182.768 210.363 182.568 209.963 182.368 209.463L182.068 204.364 181.068 204.364 180.768 209.463C180.568 209.963 180.368 210.363 180.168 210.763 179.668 211.762 179.368 212.362 179.368 213.362 179.368 214.462 180.468 215.662 181.568 215.662Z" fill="#FFFFFF" transform="matrix(1.00062 0 0 1 235.459 147.392)"/><path d="M181.568 219.161C184.267 219.161 185.667 217.261 186.567 215.362L188.767 209.063 187.867 209.063 185.367 214.262C185.167 214.362 184.867 214.462 184.667 214.562 183.567 215.062 182.168 215.662 181.568 216.762 180.968 215.662 179.468 215.062 178.068 214.462 177.868 214.362 177.668 214.262 177.568 214.262L175.369 209.063 174.469 209.063 176.669 215.362C177.069 217.161 178.668 219.161 181.568 219.161Z" fill="#FFFFFF" transform="matrix(1.00062 0 0 1 235.459 147.392)"/><path d="M188.866 239.657C188.067 239.058 187.267 238.358 186.267 238.558 186.567 237.558 186.267 236.558 185.967 235.658 185.767 234.958 185.467 234.258 185.567 233.559L185.667 233.059 185.167 233.359C184.167 233.958 183.367 235.158 183.167 236.458 183.068 237.458 183.267 238.458 183.867 239.158L182.468 240.257 182.468 232.559C185.067 232.259 187.867 230.459 188.367 227.56L194.066 219.261 192.966 219.261 186.967 226.76C186.667 226.86 186.267 227.06 185.867 227.16 184.167 227.76 182.268 228.359 181.668 229.459 180.968 228.359 179.068 227.76 177.469 227.16 177.069 227.06 176.669 226.86 176.369 226.76L170.37 219.261 169.27 219.261 174.969 227.56C175.569 230.459 178.268 232.259 180.868 232.559L180.868 240.257 179.468 239.158C180.068 238.458 180.268 237.458 180.168 236.458 179.968 235.158 179.268 233.958 178.168 233.359L177.668 233.059 177.768 233.559C177.868 234.158 177.668 234.858 177.369 235.658 177.069 236.558 176.769 237.558 177.069 238.558 176.069 238.258 175.069 239.058 174.269 239.757 173.769 240.157 173.269 240.557 172.769 240.757L172.269 240.957 172.669 241.257C174.669 242.757 176.569 242.557 178.468 240.657L180.068 241.857 174.769 245.856 176.969 246.556 180.768 243.657 180.768 247.956 181.668 248.356 182.568 247.956 182.568 243.657 186.667 246.556 188.866 245.856 183.367 241.857 184.967 240.657C186.967 242.557 188.866 242.757 190.766 241.257L191.166 240.957 190.666 240.857C189.966 240.557 189.366 240.157 188.866 239.657ZM181.568 230.159 181.568 230.159 181.568 230.159 181.568 230.159Z" fill="#FFFFFF" transform="matrix(1.00062 0 0 1 235.459 147.392)"/><path d="M259.654 324.043C257.954 324.043 256.255 324.342 254.555 325.042 251.955 322.143 248.556 320.443 245.057 320.443 240.557 320.443 237.858 322.743 237.858 326.342 237.858 327.842 238.358 329.142 239.158 330.141 237.358 329.342 235.658 328.542 233.859 327.742 232.459 327.142 230.959 326.442 229.259 325.642 222.461 322.543 199.065 312.645 182.468 312.345 190.966 307.945 199.465 305.046 207.663 302.246 215.462 299.647 222.86 297.147 229.459 293.448 238.258 288.249 244.457 281.75 248.856 272.852 254.155 262.253 256.854 248.156 257.354 229.759L257.354 229.459 257.054 229.459C250.955 229.459 248.056 227.46 248.056 223.26 248.056 219.561 249.556 217.361 256.754 217.361L257.054 217.361 257.054 217.061C257.054 211.462 256.155 206.963 255.355 202.564 254.555 198.265 253.655 193.866 253.655 188.467 253.655 183.767 254.755 174.269 262.054 164.371L262.154 164.271 259.154 158.472 258.954 158.572C256.055 159.572 252.955 158.872 250.855 156.872 249.056 155.072 248.456 152.173 249.256 149.174L249.356 148.974 243.357 145.674 243.257 145.774C233.659 154.873 223.16 159.572 212.762 159.572 207.563 159.572 199.565 158.572 191.266 153.973L191.066 153.873 181.568 166.87 172.069 153.873 171.87 153.973C163.571 158.672 155.572 159.572 150.373 159.572 139.875 159.572 129.677 154.873 119.879 145.774L119.779 145.674 113.78 148.974 113.88 149.174C114.68 152.173 114.08 155.072 112.28 156.872 110.18 158.972 107.081 159.572 104.182 158.572L103.982 158.472 100.982 164.271 101.082 164.371C108.381 174.269 109.481 183.667 109.481 188.467 109.481 193.866 108.681 198.265 107.781 202.564 106.981 206.963 106.081 211.462 106.081 217.061L106.081 217.361 106.381 217.361C113.68 217.361 115.18 219.661 115.18 223.26 115.18 227.46 112.28 229.459 106.181 229.459L105.881 229.459 105.881 229.759C106.381 248.156 109.181 262.253 114.38 272.852 118.779 281.75 124.978 288.249 133.776 293.448 140.375 297.047 147.774 299.547 155.572 302.246 163.771 305.046 172.169 307.845 180.768 312.345 164.171 312.645 140.775 322.543 133.976 325.642 132.277 326.342 130.877 327.042 129.477 327.642 127.577 328.442 125.978 329.242 124.078 330.041 124.878 329.042 125.378 327.742 125.378 326.242 125.378 322.543 122.578 320.343 118.179 320.343 114.68 320.343 111.28 322.043 108.681 324.942 107.481 324.442 105.681 323.943 103.582 323.943 98.4825 323.943 95.3831 326.642 95.3831 331.041L95.3831 343.239C95.3831 350.138 100.482 354.037 109.281 354.037 117.279 354.037 125.378 350.638 138.076 345.039 153.673 338.14 165.971 332.741 181.568 332.741 197.165 332.741 209.563 338.14 225.06 345.039 237.758 350.638 245.856 354.037 253.855 354.037 262.653 354.037 267.752 350.138 267.752 343.239L267.752 331.041C267.852 326.742 264.753 324.043 259.654 324.043ZM110.38 203.164C111.18 197.965 112.08 192.666 112.08 188.267 112.08 180.668 108.981 171.67 103.882 164.271L105.281 161.471C108.481 162.071 111.68 161.071 113.98 158.772 115.979 156.772 116.979 153.673 116.679 150.473L119.579 148.974C129.377 157.872 139.775 162.471 150.473 162.471 157.772 162.471 165.171 160.771 171.47 157.672L180.068 169.77 180.068 201.464C176.669 203.964 171.37 205.464 166.171 205.464 165.071 205.464 163.871 205.364 162.871 205.164L162.771 205.164 159.472 209.163 159.572 209.263C160.472 211.462 160.871 213.762 160.871 216.762 160.871 218.761 160.671 220.461 160.372 222.161L117.979 222.161C117.579 218.061 114.48 215.562 109.081 214.962 108.981 211.862 109.681 207.663 110.38 203.164ZM246.556 150.573C246.256 153.773 247.256 156.872 249.256 158.872 251.555 161.171 254.755 162.171 257.954 161.571L259.354 164.371C254.255 171.77 251.155 180.768 251.155 188.367 251.155 192.766 251.955 198.065 252.855 203.264 253.555 207.763 254.255 212.062 254.255 215.162 248.856 215.762 245.756 218.261 245.356 222.361L202.964 222.361C202.764 220.661 202.464 218.961 202.464 216.962 202.464 213.962 202.864 211.662 203.764 209.463L203.864 209.363 200.564 205.364 200.464 205.364C199.465 205.464 198.365 205.664 197.165 205.664 191.966 205.664 186.567 204.164 183.267 201.664L183.267 169.97 191.866 157.872C198.165 160.971 205.664 162.671 212.862 162.671 223.56 162.671 233.958 158.172 243.757 149.174L246.556 150.573ZM204.064 300.847C196.965 303.246 189.666 305.646 183.167 308.845L183.167 252.055C200.364 246.156 203.664 239.458 203.664 228.959 203.664 227.66 203.464 226.36 203.364 225.36 203.364 225.16 203.364 224.96 203.264 224.86L245.356 224.86C245.656 227.86 247.456 231.459 254.455 232.059 253.755 262.353 245.057 281.75 227.86 291.448 220.761 295.348 212.262 298.147 204.064 300.847ZM199.365 207.863 200.864 209.663 200.764 210.063C200.264 212.162 199.865 214.162 199.865 216.762 199.865 218.661 200.164 220.861 200.364 223.06 200.564 225.06 200.864 226.96 200.864 228.359 200.864 238.358 197.965 244.057 181.568 249.456 165.171 244.057 162.271 238.358 162.271 228.359 162.271 226.86 162.471 225.06 162.771 223.06 163.071 220.961 163.271 218.661 163.271 216.762 163.271 214.162 162.871 212.162 162.371 210.063L162.271 209.663 163.771 207.863 163.871 207.863C164.571 207.963 165.071 208.063 165.771 208.063 172.069 208.063 177.169 206.663 181.468 203.764 185.767 206.663 190.966 208.063 197.165 208.063 197.865 208.063 198.465 207.963 199.165 207.863L199.365 207.863ZM117.879 224.76 159.972 224.76C159.972 224.96 159.972 225.16 159.872 225.26 159.772 226.26 159.572 227.56 159.572 228.859 159.572 239.358 162.871 246.056 180.068 251.955L180.068 308.745C173.669 305.546 166.271 303.146 159.172 300.747 150.973 298.047 142.475 295.248 135.376 291.248 118.179 281.55 109.481 262.154 108.781 231.859 115.679 231.359 117.579 227.76 117.879 224.76ZM107.681 334.341C103.082 334.341 98.3825 332.541 98.3825 329.542 98.3825 327.942 100.082 326.342 103.282 326.342 105.681 326.342 108.281 327.542 111.38 329.242 113.78 330.541 116.679 331.941 119.579 331.941 115.679 333.441 111.08 334.341 107.681 334.341ZM110.88 326.142C112.48 324.143 115.48 322.743 118.079 322.743 120.779 322.743 122.678 324.242 122.678 326.342 122.678 328.342 121.578 329.542 119.679 329.542 116.979 329.542 113.58 327.642 110.88 326.142ZM181.568 315.044C194.565 315.044 214.762 322.143 228.16 328.142 239.158 333.141 247.556 336.64 255.455 336.64 261.054 336.64 263.553 335.241 265.253 333.741L265.253 343.339C265.253 348.538 261.154 351.538 253.955 351.538 246.656 351.538 238.258 348.038 226.16 342.639 209.163 335.041 196.965 330.141 181.668 330.141 166.37 330.141 154.073 335.141 137.176 342.639 124.678 348.138 116.579 351.538 109.381 351.538 102.182 351.538 98.0826 348.538 98.0826 343.339L98.0826 333.741C99.6823 335.241 102.282 336.64 107.881 336.64 115.679 336.64 124.078 333.141 135.176 328.142 148.374 322.143 168.67 315.044 181.568 315.044ZM243.557 332.041C246.456 332.041 249.456 330.641 251.755 329.342 254.855 327.542 257.454 326.442 259.854 326.442 263.053 326.442 264.753 328.142 264.753 329.642 264.753 332.641 260.054 334.441 255.455 334.441 252.055 334.341 247.456 333.441 243.557 332.041ZM240.457 326.342C240.457 324.242 242.357 322.743 245.057 322.743 247.656 322.743 250.656 324.143 252.255 326.142 249.656 327.642 246.156 329.542 243.357 329.542 241.557 329.542 240.457 328.342 240.457 326.342Z" fill="#FFFFFF" transform="matrix(1.00062 0 0 1 235.459 147.392)"/><path d="M247.256 312.944C247.256 314.944 248.856 316.344 251.255 316.344 253.855 316.344 256.454 314.444 256.454 310.845 256.454 303.246 248.056 296.847 238.158 296.847 231.659 296.847 225.56 299.247 217.861 302.346 213.062 304.246 207.663 306.446 201.164 308.445L200.664 308.545 201.064 308.845C208.563 315.044 216.262 318.144 223.86 318.144 231.159 318.144 236.958 315.244 241.557 312.844 244.457 311.345 246.956 310.145 248.856 310.145 247.856 310.645 247.256 311.745 247.256 312.944ZM238.758 307.445 238.758 307.445C233.759 309.545 225.96 310.545 220.861 310.545 219.661 310.545 216.162 310.445 213.462 310.345 219.161 309.645 224.06 308.345 228.359 307.046 234.758 305.246 240.357 303.746 246.556 304.646L248.656 304.946 246.756 304.146C244.957 303.346 241.757 302.846 238.958 302.846 234.758 302.846 229.959 304.046 224.86 305.246 220.061 306.446 215.062 307.645 210.263 307.945 212.762 307.046 215.462 305.946 218.261 304.846 225.26 301.946 232.459 299.047 238.258 299.047 244.557 299.047 253.955 302.846 253.955 310.845 253.955 310.845 253.955 310.945 253.955 310.945 253.255 308.845 251.355 307.745 248.256 307.745 245.856 307.745 242.957 309.145 239.757 310.745 235.258 313.044 230.059 315.544 223.96 315.544 219.961 315.544 215.862 314.644 211.562 312.745 219.761 313.144 228.959 312.844 238.758 307.445Z" fill="#FFFFFF" transform="matrix(1.00062 0 0 1 235.459 147.392)"/><path d="M192.766 237.158C191.966 236.658 190.966 236.058 190.166 236.258 190.366 235.358 189.866 234.458 189.466 233.559 189.066 232.859 188.767 232.159 188.767 231.559L188.767 230.959 188.367 231.359C186.167 233.559 186.167 235.758 188.367 238.158L188.367 238.158C189.566 239.458 190.766 240.157 191.866 240.157 191.866 240.157 191.866 240.157 191.866 240.157 192.966 240.157 193.966 239.558 194.865 238.458L195.265 238.058 194.665 238.058C194.066 237.958 193.466 237.558 192.766 237.158ZM189.466 236.858 189.466 236.858 189.466 236.858 189.466 236.858Z" fill="#FFFFFF" transform="matrix(1.00062 0 0 1 235.459 147.392)"/><path d="M256.055 262.553 255.755 262.353 255.655 262.653C254.855 265.053 254.255 267.653 253.655 270.152 251.455 279.051 249.356 287.449 240.257 289.849L239.957 289.949 240.057 290.249C241.757 294.248 246.656 296.047 250.456 296.047 254.655 296.047 258.854 293.948 260.654 290.848 261.054 292.748 261.854 294.648 262.553 296.447 263.353 298.447 264.053 300.247 264.053 301.547 264.053 302.146 264.053 302.546 263.853 302.946 263.353 301.846 262.253 300.947 260.454 300.947 258.654 300.947 256.555 302.546 256.555 304.846 256.555 308.045 259.154 310.245 262.953 310.245 269.452 310.245 276.051 304.746 276.051 292.448 276.251 281.45 270.152 272.452 256.055 262.553ZM260.754 277.951 260.754 278.551C260.854 284.15 259.654 288.249 257.154 290.748 255.455 292.448 253.155 293.348 250.456 293.348 247.856 293.348 245.356 292.148 244.157 291.148 250.056 288.649 253.855 282.45 256.155 270.952 257.454 278.051 254.355 287.049 250.556 290.348L249.556 291.248 250.756 290.848C256.454 288.949 259.454 279.15 259.054 270.752 264.653 278.751 267.952 289.749 269.152 297.447L269.452 299.647 269.652 297.447C270.352 288.849 267.653 279.55 261.854 270.352 269.052 276.051 273.451 284.35 273.451 292.448 273.451 299.247 270.952 304.646 266.753 306.846 265.053 307.745 263.153 308.045 261.554 307.545 262.553 307.545 263.453 307.245 264.153 306.646 265.553 305.646 266.353 303.746 266.353 301.646 266.353 299.647 265.553 297.747 264.653 295.348 263.253 291.748 260.854 287.849 260.654 279.55L260.754 277.951 260.754 277.951Z" fill="#FFFFFF" transform="matrix(1.00062 0 0 1 235.459 147.392)"/><path d="M132.077 255.055C132.077 251.055 133.576 249.456 137.376 249.356 137.376 249.956 137.376 250.556 137.376 251.055 137.376 254.855 137.376 258.154 136.876 261.654 136.276 265.753 134.576 266.953 132.077 268.852L131.677 269.152 134.976 272.752 135.176 272.552C138.875 269.352 140.575 266.453 141.175 262.253 141.675 258.454 141.675 255.055 141.675 251.155 141.675 250.556 141.675 249.956 141.675 249.356L149.074 249.356C148.574 258.054 148.574 259.654 148.574 264.253 148.574 269.352 150.873 271.952 155.272 271.952 157.372 271.952 158.672 271.352 159.372 270.852L159.472 270.752 159.472 266.753 159.072 266.953C158.172 267.353 157.572 267.553 156.372 267.553 154.773 267.553 152.873 267.053 152.873 263.153 152.873 262.453 152.873 261.954 152.873 261.354 152.873 258.854 152.873 256.854 153.273 249.256L159.072 249.256 159.072 245.157 137.976 245.157C131.377 245.157 128.277 247.756 127.577 253.855L127.577 254.055 132.077 255.255 132.077 255.055Z" fill="#FFFFFF" transform="matrix(1.00062 0 0 1 235.459 147.392)"/><path d="M195.865 233.859C194.965 233.559 194.066 233.159 193.166 233.459 193.466 232.559 193.166 231.759 192.866 230.859 192.766 230.559 192.666 230.259 192.566 229.959L195.265 222.461 194.366 222.461 190.866 230.059C189.566 231.959 189.866 233.859 191.466 235.058L191.466 235.058 191.566 235.158C191.666 235.158 191.666 235.258 191.766 235.258L191.766 235.258C192.966 236.058 194.066 236.458 194.965 236.458 196.265 236.458 197.265 235.758 198.265 234.758L198.665 234.358 197.965 234.358C197.165 234.358 196.565 234.058 195.865 233.859Z" fill="#FFFFFF" transform="matrix(1.00062 0 0 1 235.459 147.392)"/><path d="M197.165 226.46C195.965 227.16 193.566 228.859 193.566 230.759 193.566 231.659 194.166 232.559 195.065 232.859 195.265 232.959 195.565 232.959 195.765 232.959 196.265 232.959 196.765 232.759 197.265 232.459 198.165 231.759 198.765 230.559 198.765 229.259 198.765 228.759 198.765 228.16 198.665 226.56 198.565 225.06 198.365 222.561 198.165 218.161L198.165 217.961 197.265 217.961 197.265 226.46Z" fill="#FFFFFF" transform="matrix(1.00062 0 0 1 235.459 147.392)"/><path d="M276.651 244.257C274.351 242.057 271.952 240.457 269.852 239.058 266.753 237.058 264.153 235.258 262.553 232.459L262.253 232.059 262.054 232.559C260.454 236.058 259.454 242.557 259.454 246.856 259.454 257.254 263.653 262.853 268.052 267.653L268.652 268.352C271.752 271.952 275.351 276.051 277.751 283.15L277.851 283.45 278.151 283.35C282.65 280.95 285.749 274.051 285.749 266.553 285.749 257.554 282.65 249.956 276.651 244.257ZM275.151 266.553C274.751 265.653 274.251 264.753 273.851 263.953 270.252 256.854 266.853 250.156 265.053 242.057 272.652 250.456 277.451 259.554 279.55 271.852L279.55 271.852C279.25 256.654 273.451 247.556 267.453 240.657 277.551 246.556 283.15 255.655 283.15 266.453 283.15 273.651 280.35 277.851 279.051 279.35 276.751 274.651 273.451 269.852 269.952 266.053L269.652 265.653C265.853 260.854 262.253 256.355 262.253 246.856 262.253 245.556 262.253 244.757 262.353 243.157 264.553 251.955 268.952 260.354 274.651 266.853L275.951 268.352 275.151 266.553Z" fill="#FFFFFF" transform="matrix(1.00062 0 0 1 235.459 147.392)"/><path d="M97.7827 231.959C101.282 228.26 103.082 223.06 103.082 216.762 103.082 213.662 102.782 211.063 102.282 208.763L102.082 207.963 101.782 208.663C98.5825 215.462 92.4836 219.861 86.0847 219.861 85.0849 219.861 82.7853 219.661 81.5855 218.361 81.8855 218.461 82.1854 218.461 82.5854 218.461 84.585 218.461 86.1847 216.762 86.1847 214.562 86.1847 211.762 84.0851 209.963 80.8857 209.763 78.5861 209.663 76.4864 210.463 74.6867 212.162 72.2872 214.462 70.7874 218.161 70.7874 222.061 70.7874 230.759 77.0863 236.958 85.6848 236.958 90.384 237.058 94.6832 235.258 97.7827 231.959ZM78.0861 215.762C78.0861 219.661 81.3856 222.361 86.0847 222.361 91.8837 222.361 95.683 219.861 98.8825 217.061 96.5829 222.96 91.1838 227.26 85.9847 227.26 81.7855 227.26 79.086 225.76 77.0863 222.261L75.8865 220.161 76.5864 222.461C77.9862 227.06 81.5855 229.859 85.9847 229.859 91.9837 229.859 97.2827 226.36 100.582 220.061 99.0824 229.059 93.5834 234.458 85.8848 234.458 78.886 234.458 73.487 229.159 73.487 222.061 73.487 216.362 76.7864 211.862 80.9856 211.862 81.0856 211.862 81.1856 211.862 81.2856 211.862 79.3859 212.062 78.0861 213.662 78.0861 215.762Z" fill="#FFFFFF" transform="matrix(1.00062 0 0 1 235.459 147.392)"/><path d="M106.381 304.746C106.381 302.446 104.381 300.847 102.482 300.847 100.582 300.847 99.4824 301.846 99.0824 302.846 98.8825 302.546 98.8825 302.146 98.8825 301.447 98.8825 300.147 99.5823 298.347 100.382 296.347 101.082 294.648 101.882 292.748 102.282 290.748 104.082 293.748 108.181 295.948 112.48 295.948 116.279 295.948 121.178 294.148 122.878 290.149L122.978 289.849 122.678 289.749C113.58 287.349 111.48 278.951 109.281 270.052 108.681 267.553 108.081 265.053 107.281 262.553L107.181 262.253 106.881 262.453C92.6836 272.352 86.6846 281.35 86.6846 292.248 86.6846 304.546 93.2835 310.045 99.7823 310.045 103.782 310.145 106.381 307.945 106.381 304.746ZM100.982 270.252C95.1831 279.45 92.4836 288.849 93.1835 297.347L93.3834 299.547 93.6834 297.347C94.8832 289.549 98.1826 278.651 103.782 270.652 103.382 279.051 106.381 288.849 112.08 290.748L113.28 291.148 112.28 290.249C108.481 286.949 105.381 278.051 106.681 270.852 109.081 282.35 112.78 288.549 118.679 291.048 117.479 292.048 114.98 293.248 112.38 293.248 109.681 293.248 107.381 292.348 105.681 290.648 103.282 288.249 102.082 284.25 102.082 278.851 102.082 278.551 102.082 278.151 102.082 277.851L101.582 277.851C101.582 278.151 101.582 278.551 101.582 278.851 101.382 286.949 99.4824 291.748 98.0826 295.248 97.0828 297.547 96.3829 299.447 96.3829 301.547 96.3829 303.646 97.1828 305.546 98.5825 306.546 99.3824 307.146 100.282 307.445 101.182 307.445 99.5823 307.945 97.7827 307.645 95.983 306.746 91.7837 304.446 89.2842 299.047 89.2842 292.348 89.3841 284.35 93.8833 275.951 100.982 270.252Z" fill="#FFFFFF" transform="matrix(1.00062 0 0 1 235.459 147.392)"/><path d="M189.966 335.64C186.967 335.64 184.467 336.44 181.468 338.14 178.868 336.54 176.569 335.64 173.269 335.64 166.97 335.64 162.671 338.64 162.671 343.139 162.671 346.639 165.671 348.838 168.57 348.838 171.27 348.838 172.969 347.538 172.969 345.439 172.969 343.839 171.969 342.839 170.37 342.839 169.57 342.839 168.77 343.339 168.27 344.039 167.87 344.739 167.77 345.539 168.17 346.339 166.47 346.139 165.271 344.739 165.271 342.939 165.271 339.94 168.17 337.94 172.769 337.94 175.669 337.94 178.268 338.84 179.568 339.74 177.469 341.939 175.369 344.539 175.369 347.938 175.369 352.138 178.468 354.637 181.568 354.637 184.567 354.637 187.767 352.138 187.767 347.938 187.767 344.539 185.667 341.939 183.567 339.74 184.967 338.84 187.767 337.94 190.666 337.94 194.965 337.94 197.865 339.94 197.865 342.939 197.865 344.839 196.665 346.139 194.965 346.339 195.265 345.539 195.265 344.739 194.865 344.039 194.465 343.239 193.666 342.839 192.766 342.839 191.166 342.839 190.166 343.839 190.166 345.439 190.166 347.538 191.866 348.838 194.565 348.838 197.465 348.838 200.464 346.738 200.464 343.139 200.264 338.74 196.065 335.64 189.966 335.64ZM181.468 341.439C183.867 343.639 185.067 345.739 185.067 348.038 185.067 350.838 183.267 352.138 181.468 352.138 179.668 352.138 177.868 350.838 177.868 348.038 177.868 345.739 179.068 343.539 181.468 341.439Z" fill="#FFFFFF" transform="matrix(1.00062 0 0 1 235.459 147.392)"/><path d="M139.275 318.144C146.974 318.144 154.573 315.044 162.071 308.845L162.471 308.545 161.971 308.445C155.472 306.546 150.073 304.346 145.274 302.346 137.576 299.247 131.477 296.847 124.978 296.847 115.08 296.847 106.681 303.246 106.681 310.845 106.681 314.444 109.281 316.344 111.88 316.344 114.28 316.344 115.879 314.944 115.879 312.944 115.879 311.645 115.28 310.645 114.28 310.145 116.179 310.145 118.679 311.345 121.578 312.844 126.178 315.244 131.977 318.144 139.275 318.144ZM138.275 305.346C133.176 304.146 128.377 302.946 124.178 302.946 121.278 302.946 118.179 303.446 116.379 304.246L114.48 305.046 116.579 304.746C122.778 303.746 128.277 305.346 134.776 307.146 139.175 308.345 144.074 309.745 149.673 310.445 146.974 310.545 143.475 310.645 142.275 310.645 137.176 310.645 129.177 310.145 124.078 308.045L124.078 308.045C133.976 313.444 143.275 313.244 151.573 313.044 147.274 314.944 143.275 315.844 139.175 315.844 133.076 315.844 127.877 313.244 123.378 311.045 120.079 309.445 117.279 308.045 114.88 308.045 111.78 308.045 109.881 309.145 109.181 311.245 109.181 311.245 109.181 311.145 109.181 311.145 109.181 303.046 118.579 299.347 124.878 299.347 130.677 299.347 137.876 302.346 144.874 305.146 147.674 306.346 150.373 307.445 152.873 308.245 148.074 307.745 143.175 306.546 138.275 305.346Z" fill="#FFFFFF" transform="matrix(1.00062 0 0 1 235.459 147.392)"/><path d="M94.9831 267.553C99.2824 262.753 103.582 257.154 103.582 246.756 103.582 242.457 102.582 235.958 100.982 232.459L100.782 231.959 100.482 232.359C98.8825 235.158 96.1829 236.958 93.1835 238.958 91.0838 240.357 88.6843 241.957 86.3847 244.157 80.4857 249.756 77.2863 257.454 77.2863 266.253 77.2863 273.751 80.3857 280.75 84.8849 283.05L85.1849 283.15 85.2849 282.85C87.6844 275.751 91.1838 271.752 94.3833 268.152L94.9831 267.553ZM88.2843 266.853C93.9833 260.354 98.3825 251.955 100.582 243.157 100.682 244.857 100.682 245.556 100.682 246.856 100.682 256.355 97.0828 260.854 93.2835 265.653L92.9835 265.953C89.3841 269.852 86.0847 274.651 83.8851 279.35 82.6853 277.851 79.7859 273.651 79.7859 266.453 79.7859 255.655 85.2849 246.556 95.4831 240.657 89.4841 247.556 83.6852 256.654 83.3852 271.852L83.3852 271.852C85.4848 259.654 90.284 250.456 97.8826 242.057 96.083 250.056 92.6836 256.754 89.1842 263.853 88.7842 264.753 88.2843 265.653 87.8844 266.553L86.9846 268.352 88.2843 266.853Z" fill="#FFFFFF" transform="matrix(1.00062 0 0 1 235.459 147.392)"/><path d="M89.3841 215.462 89.984 215.162C99.4824 210.263 106.081 198.965 106.081 187.667 106.081 179.768 103.082 174.769 100.582 170.67 98.9824 167.97 97.5827 165.571 97.5827 163.171 97.5827 162.671 97.5827 162.171 97.7827 161.771L98.0826 161.071 97.3827 161.371C89.7841 165.071 85.1849 173.469 85.1849 183.367 85.1849 188.167 86.4847 192.866 87.7844 197.465 89.0842 202.064 90.284 206.363 90.284 210.863 90.284 212.162 89.984 213.662 89.4841 214.862L89.3841 215.462ZM91.1838 180.068C91.1838 185.567 92.7835 194.266 95.2831 202.764L95.2831 202.764C93.9833 192.866 93.7834 185.867 93.7834 180.068 93.7834 177.668 93.9833 172.569 94.7832 169.07 95.683 172.769 96.3829 177.768 97.0828 184.867L97.0828 184.867C97.4827 188.367 97.8826 192.466 98.0826 196.565L98.1826 198.565 98.5825 196.665C99.0824 193.966 99.4824 188.467 99.3824 184.867 99.2824 181.168 98.1826 173.969 97.1828 169.67 101.282 176.669 103.482 181.768 103.482 187.567 103.482 196.565 99.9823 204.164 92.9835 210.463 92.9835 205.764 91.6837 201.164 90.384 196.765 89.0842 192.466 87.7844 187.967 87.7844 183.367 87.7844 177.469 89.2842 172.369 92.0837 168.37 91.5837 171.37 91.1838 176.469 91.1838 180.068Z" fill="#FFFFFF" transform="matrix(1.00062 0 0 1 235.459 147.392)"/><path d="M115.679 128.877C115.679 134.176 117.879 141.175 122.878 145.074L122.978 145.074 123.078 145.074C129.777 146.074 134.976 150.373 135.476 153.573L135.576 154.073 135.976 153.773C137.776 152.273 139.675 149.074 139.675 145.874 139.675 142.175 137.376 139.075 133.676 137.976 142.575 127.577 143.275 114.18 143.275 110.28 143.275 94.5832 135.076 87.5845 127.077 87.5845 120.679 87.5845 115.979 91.7837 115.979 97.4827 115.979 101.782 119.279 105.081 123.678 105.081 125.178 105.081 126.378 104.881 127.377 104.481 126.078 107.181 124.378 109.581 122.678 111.98 119.179 116.779 115.679 121.678 115.679 128.877ZM130.477 139.175C134.876 140.175 137.276 142.475 137.276 145.874 137.276 147.474 136.876 148.974 136.176 149.973 134.376 147.274 132.077 145.174 127.077 143.874 129.577 143.075 132.277 143.575 134.376 145.174L135.176 145.874 134.776 144.874C133.376 141.875 130.177 140.475 126.178 141.075 136.576 121.978 139.775 107.781 135.876 98.9824L135.076 97.0828 135.376 99.0824C136.676 106.581 136.476 117.979 123.978 139.075 123.478 129.177 125.978 123.978 128.377 118.879 129.977 115.48 131.677 112.08 132.377 107.281L132.377 107.281C131.177 111.28 128.877 114.18 127.077 117.179 123.878 122.478 120.579 128.077 121.079 139.175 119.079 136.176 118.179 131.977 118.179 128.877 118.179 122.478 121.678 117.379 125.078 112.48 127.977 108.181 130.777 104.182 130.777 99.7823 130.777 97.3827 129.277 95.683 127.177 95.683 124.978 95.683 123.778 97.3827 123.778 99.0824 123.778 100.082 124.178 100.882 124.778 101.482 125.278 101.882 126.078 102.382 127.277 102.382 126.378 102.882 125.178 103.082 123.478 103.082 120.579 103.082 118.379 100.682 118.379 97.5827 118.379 92.9835 121.678 89.984 126.877 89.984 133.576 89.984 140.775 96.3829 140.775 110.28 140.775 117.479 138.975 128.277 130.277 138.675L129.977 138.975 130.477 139.175Z" fill="#FFFFFF" transform="matrix(1.00062 0 0 1 235.459 147.392)"/><path d="M81.4855 166.171C86.8846 166.171 91.2838 162.971 95.683 159.872 99.4824 157.172 103.182 154.573 106.981 154.573L107.081 154.573 107.181 154.473C111.18 149.873 113.98 142.375 113.98 135.776 113.98 123.078 106.381 115.28 99.0824 115.18L98.7825 115.18 98.8825 115.48C99.2824 116.979 99.4824 118.479 99.4824 119.779 99.4824 122.478 98.6825 124.378 97.8826 126.378 96.9828 128.677 95.883 131.177 95.783 135.176 93.2835 133.376 89.6841 132.177 86.4847 132.177 83.3852 132.177 81.4855 132.676 80.9856 132.976L80.8857 133.076 80.8857 133.176C79.8858 139.375 83.0853 145.974 88.7842 149.274 87.0845 149.973 85.7848 151.173 84.685 152.273 84.285 150.173 82.4854 148.874 79.8858 148.874 75.9865 148.874 71.8872 152.073 71.8872 157.372 71.6873 162.471 75.8865 166.171 81.4855 166.171ZM79.186 151.473C78.686 151.973 78.2861 152.573 78.2861 153.373 78.2861 155.172 79.5859 156.472 81.3856 156.472 83.1852 156.472 84.1851 155.472 85.3848 154.273 86.9846 152.673 88.8842 150.773 93.5834 150.073L94.4832 149.973 93.5834 149.573C85.3848 146.174 82.6853 139.775 82.8853 134.976 83.8851 134.776 84.785 134.676 85.9847 134.676 90.7839 134.676 94.7832 136.976 98.0826 141.475L99.0824 142.875 98.5825 141.275C98.1826 139.975 97.9826 138.375 97.9826 135.976 97.9826 131.877 99.0824 129.177 100.082 126.778 100.882 124.778 101.582 122.978 101.582 120.679 101.582 119.679 101.482 118.779 101.282 118.079 101.482 118.179 101.782 118.279 101.982 118.279 102.082 118.279 102.182 118.379 102.182 118.379 107.981 120.779 111.28 127.177 111.28 136.076 111.28 140.675 109.681 145.974 107.981 148.974 109.381 136.876 108.281 128.577 104.681 123.078L103.782 121.678 104.182 123.278C106.481 131.677 106.881 139.975 105.481 148.574 104.082 143.575 102.782 137.676 101.982 132.077L101.682 129.877 101.482 132.077C100.882 138.475 102.282 145.574 103.182 149.274 98.9824 144.474 92.6836 138.975 86.9846 137.376L85.1849 136.876 86.7846 137.876C92.6836 141.575 98.1826 146.274 101.282 150.573 98.2826 148.974 95.3831 147.174 92.5836 145.374 91.5837 144.774 90.4839 144.074 89.4841 143.475L88.0844 142.675 89.0842 143.874C91.2838 146.574 95.783 149.973 100.082 152.373 97.8826 152.373 93.7834 152.673 90.9839 154.473 90.084 155.072 89.1842 155.672 88.2843 156.172 83.7851 159.172 80.8857 161.071 77.8862 158.872L76.0865 157.572 77.4863 159.272C80.9856 163.571 85.7848 160.472 91.2838 156.972L91.8837 156.572C94.8832 154.673 98.2826 154.473 100.282 154.473 98.1826 155.572 96.083 156.972 93.9833 158.372 89.8841 161.171 85.5848 164.171 81.1856 164.171 76.9863 164.171 73.9869 161.471 73.9869 157.772 73.9869 154.673 75.9865 151.473 79.3859 151.473 79.4859 151.273 79.2859 151.273 79.186 151.473Z" fill="#FFFFFF" transform="matrix(1.00062 0 0 1 235.459 147.392)"/><path d="M213.562 181.368C215.462 181.368 216.762 180.668 218.361 179.268 220.361 177.469 222.161 176.469 225.66 176.469 230.059 176.469 234.358 178.868 234.358 184.167 234.358 189.666 230.659 192.766 221.661 194.765L219.161 195.365 219.161 198.965 222.561 198.365C229.459 196.665 238.758 193.266 238.758 183.967 238.758 177.169 233.359 172.369 225.66 172.369 218.361 172.369 211.462 177.668 211.462 180.068 211.462 180.868 212.362 181.368 213.562 181.368ZM214.562 178.068C214.562 177.668 214.862 177.469 215.162 177.469 215.562 177.469 215.762 177.768 215.762 178.068 215.762 178.468 215.462 178.668 215.162 178.668 214.862 178.668 214.562 178.468 214.562 178.068Z" fill="#FFFFFF" transform="matrix(1.00062 0 0 1 235.459 147.392)"/><path d="M217.661 204.064 215.062 203.564C211.962 202.964 211.362 202.564 211.362 202.064 211.362 201.564 211.662 201.164 213.262 200.764L213.462 200.764 213.462 197.265 213.162 197.365C209.063 198.465 207.263 199.965 207.263 202.264 207.263 204.464 209.663 205.863 214.962 206.763L217.561 207.263C224.36 208.663 225.46 210.863 226.06 211.962 226.36 212.462 226.56 212.962 227.16 212.962 227.76 212.962 227.96 211.762 227.96 211.163 227.96 210.863 227.86 210.163 227.56 209.563 226.96 208.463 225.16 205.564 217.661 204.064Z" fill="#FFFFFF" transform="matrix(1.00062 0 0 1 235.459 147.392)"/><path d="M217.961 209.263 217.961 208.263 214.862 207.663 214.862 209.363C211.362 210.163 209.163 210.863 209.163 212.362L209.163 212.662 223.86 212.662 223.86 212.362C223.86 210.863 221.561 210.063 217.961 209.263Z" fill="#FFFFFF" transform="matrix(1.00062 0 0 1 235.459 147.392)"/><path d="M131.677 204.564C139.075 204.564 141.675 201.764 141.675 199.365L141.675 199.065 139.775 199.065 133.176 178.668C135.776 178.168 138.076 177.868 140.075 177.868 140.475 178.968 141.775 180.068 143.375 180.068 144.974 180.068 146.274 178.968 146.674 177.868 149.473 177.868 152.073 178.368 153.573 178.668L146.974 199.065 145.074 199.065 145.074 199.365C145.074 201.764 147.674 204.564 155.072 204.564 162.071 204.564 164.571 201.864 164.571 199.365L164.571 199.065 162.971 199.065 156.972 179.668 157.872 179.968 158.972 176.769 158.672 176.669C154.473 175.369 150.473 174.569 146.274 174.369 145.774 173.169 144.574 172.269 143.075 172.269 141.675 172.269 140.375 173.069 139.775 174.369 135.576 174.669 131.777 175.369 127.477 176.669L127.177 176.769 128.277 179.968 129.177 179.668 123.178 199.065 121.578 199.065 121.578 199.365C122.078 201.964 124.578 204.564 131.677 204.564ZM125.978 199.165 130.677 182.868 130.677 199.165 125.978 199.165ZM132.676 199.165 132.676 182.868 137.476 199.165 132.676 199.165ZM149.473 199.165 154.273 182.868 154.273 199.165 149.473 199.165ZM156.372 199.165 156.372 182.868 161.171 199.165 156.372 199.165Z" fill="#FFFFFF" transform="matrix(1.00062 0 0 1 235.459 147.392)"/><path d="M214.862 202.464 217.961 203.064 217.961 192.966C224.26 191.566 230.359 189.866 230.359 184.767L230.359 184.467 202.564 184.467 202.564 184.767C202.564 189.766 208.663 191.566 214.962 192.966L214.962 202.464Z" fill="#FFFFFF" transform="matrix(1.00062 0 0 1 235.459 147.392)"/><path d="M221.661 147.274C219.361 149.074 217.061 149.573 212.662 149.573 205.364 149.573 197.165 145.174 193.566 145.174 190.466 145.174 189.166 146.974 188.667 151.373 192.566 151.373 203.864 157.072 211.862 157.072 217.761 157.072 221.161 154.973 221.661 147.274ZM194.266 150.873C193.066 150.573 192.566 149.673 192.566 148.574 192.566 147.174 193.366 146.374 194.366 146.474 195.765 146.774 196.165 147.874 196.165 149.174 196.165 150.473 195.265 151.173 194.266 150.873ZM198.765 152.273 198.165 150.373 198.165 152.073 196.865 151.673 196.865 147.274 198.165 147.674C199.465 148.074 199.965 148.574 199.965 149.373 199.965 149.873 199.665 150.273 199.165 150.373L200.164 152.773 198.765 152.273ZM201.864 153.373 200.564 152.973 200.564 148.474 201.964 148.974C203.464 149.473 204.064 150.473 204.064 151.773 203.964 153.173 202.864 153.573 201.864 153.373ZM207.063 154.673 204.464 154.073 204.464 149.873 206.963 150.473 206.963 151.273 205.764 150.873 205.764 152.073 206.763 152.173 206.763 152.973 205.764 152.673 205.764 153.673 207.063 153.973 207.063 154.673ZM211.263 155.272 209.763 155.172 208.563 151.873 208.663 155.072 207.863 154.973 207.863 150.773 209.563 151.073 210.563 154.273 210.463 151.173 211.263 151.173 211.263 155.272Z" fill="#FFFFFF" transform="matrix(1.00062 0 0 1 235.459 147.392)"/><path d="M153.673 153.973C153.673 153.473 153.373 153.173 153.073 153.173L153.073 154.673C153.373 154.773 153.673 154.473 153.673 153.973Z" fill="#FFFFFF" transform="matrix(1.00062 0 0 1 235.459 147.392)"/><path d="M201.864 149.573 201.864 152.673C202.364 152.773 202.764 152.573 202.764 151.473 202.764 150.073 202.364 149.773 201.864 149.573Z" fill="#FFFFFF" transform="matrix(1.00062 0 0 1 235.459 147.392)"/><path d="M165.871 148.174 165.671 150.473 166.271 150.273Z" fill="#FFFFFF" transform="matrix(1.00062 0 0 1 235.459 147.392)"/><path d="M151.373 157.072C159.372 157.072 170.67 151.173 174.569 151.173 174.069 146.774 172.769 144.974 169.67 144.974 165.971 144.974 157.872 149.573 150.573 149.573 147.374 149.573 143.874 149.074 141.575 147.274 142.075 154.973 145.474 157.072 151.373 157.072ZM166.77 147.174 167.77 151.173 167.77 146.974 169.07 146.674C170.37 146.374 171.17 146.974 171.17 148.174 171.17 149.573 170.57 150.273 169.07 150.773L167.77 151.173 166.47 151.573 166.37 150.973 165.471 151.373 165.371 152.173 164.371 152.573 165.271 147.774 166.77 147.174ZM161.671 148.874 164.671 147.974 164.671 148.874 163.871 148.974 163.871 152.573 162.571 152.973 162.571 149.373 161.671 149.773 161.671 148.874ZM158.572 149.773 159.972 149.373C160.971 149.074 161.671 149.773 161.671 150.573 161.671 150.973 161.371 151.473 161.071 151.573L162.071 153.073 160.671 153.473 159.872 152.073 159.872 153.773 158.572 154.173 158.572 149.773ZM155.472 150.473 157.872 149.973 157.872 150.773 156.672 150.873 156.672 151.873 157.872 151.573 157.872 152.373 156.672 152.473 156.672 153.673 157.972 153.373 157.972 154.173 155.372 154.673 155.372 150.473ZM151.773 150.973 153.173 150.873C154.173 150.773 154.873 150.973 154.873 151.773 154.873 152.273 154.473 152.773 153.973 152.773 154.473 152.773 154.973 152.873 154.973 153.673 154.973 154.473 154.473 154.973 153.473 155.072L151.773 155.172 151.773 150.973ZM149.673 150.973 150.973 150.973 150.973 155.072 149.673 155.072 149.673 150.973ZM146.874 150.773 148.174 150.873 148.174 154.373 149.174 154.373 149.174 155.172C148.374 155.172 147.374 154.873 146.874 154.673L146.874 150.773Z" fill="#FFFFFF" transform="matrix(1.00062 0 0 1 235.459 147.392)"/><path d="M198.065 148.274 198.065 149.973C198.465 150.073 198.665 149.873 198.665 149.373 198.765 148.874 198.565 148.474 198.065 148.274Z" fill="#FFFFFF" transform="matrix(1.00062 0 0 1 235.459 147.392)"/><path d="M160.372 150.673C160.372 150.273 160.272 149.873 159.872 150.073L159.872 151.573C160.272 151.373 160.372 151.173 160.372 150.673Z" fill="#FFFFFF" transform="matrix(1.00062 0 0 1 235.459 147.392)"/><path d="M153.673 152.073C153.673 151.673 153.373 151.473 153.073 151.473L153.073 152.773C153.373 152.673 153.673 152.473 153.673 152.073Z" fill="#FFFFFF" transform="matrix(1.00062 0 0 1 235.459 147.392)"/><path d="M194.366 147.074C193.866 146.974 193.866 147.674 193.866 148.774 193.866 149.573 193.866 150.273 194.366 150.473 194.865 150.573 194.865 149.873 194.865 148.974 194.865 148.074 194.865 147.174 194.366 147.074Z" fill="#FFFFFF" transform="matrix(1.00062 0 0 1 235.459 147.392)"/><path d="M176.069 145.474C176.069 146.974 176.869 149.373 177.369 150.873 178.668 150.573 180.468 150.373 181.468 150.373 182.768 150.373 184.567 150.673 185.867 150.873 186.367 149.373 187.167 146.974 187.167 145.474 187.167 143.375 185.667 142.675 181.468 142.675 177.568 142.675 176.069 143.375 176.069 145.474ZM182.468 144.474 183.267 144.474 182.268 147.174 182.268 148.574 180.968 148.574 180.968 147.174 179.968 144.474 181.268 144.474 181.868 146.374 182.468 144.474Z" fill="#FFFFFF" transform="matrix(1.00062 0 0 1 235.459 147.392)"/><path d="M169.87 148.474C169.87 147.174 169.57 147.174 169.07 147.174L169.07 150.173C169.67 149.873 169.87 149.573 169.87 148.474Z" fill="#FFFFFF" transform="matrix(1.00062 0 0 1 235.459 147.392)"/><path d="M149.373 332.141C149.373 332.941 148.474 333.141 147.474 332.941L147.774 334.341C149.274 334.841 151.073 333.841 151.073 332.041 151.073 329.741 148.674 329.342 148.674 328.042 148.674 327.042 149.573 326.842 150.573 327.142L150.273 325.742C148.474 325.442 147.074 326.542 147.074 328.042 147.074 330.341 149.373 330.641 149.373 332.141Z" fill="#FFFFFF" transform="matrix(1.00062 0 0 1 235.459 147.392)"/><path d="M159.472 329.042 160.871 328.642 161.171 330.141 162.471 329.741 161.171 321.843 158.972 322.443 157.572 331.041 159.272 330.541 159.472 329.042ZM159.872 325.242 159.972 323.543 160.272 323.443 160.372 325.142 160.671 327.442 159.672 327.742 159.872 325.242Z" fill="#FFFFFF" transform="matrix(1.00062 0 0 1 235.459 147.392)"/><path d="M154.173 329.242C154.773 329.242 155.172 328.842 155.172 328.242 155.172 327.642 154.773 327.242 154.173 327.242 153.573 327.242 153.173 327.642 153.173 328.242 153.173 328.842 153.573 329.242 154.173 329.242Z" fill="#FFFFFF" transform="matrix(1.00062 0 0 1 235.459 147.392)"/><path d="M117.079 345.639C116.579 345.939 115.679 346.139 115.28 346.239L115.28 343.539 116.779 343.239 116.779 341.939 115.28 342.439 115.28 340.14 117.079 339.84 117.079 338.54C116.079 338.84 114.98 339.04 113.78 339.34L113.78 347.538C114.68 347.438 116.179 347.038 117.079 346.738L117.079 345.639Z" fill="#FFFFFF" transform="matrix(1.00062 0 0 1 235.459 147.392)"/><path d="M143.774 334.741 145.474 334.141 145.774 335.64 147.074 335.141 145.274 327.442 143.175 328.242 142.175 337.24 143.674 336.64 143.774 334.741ZM144.174 331.041 144.174 329.142 144.474 329.042 144.774 330.941 145.274 332.841 143.974 333.341 144.174 331.041Z" fill="#FFFFFF" transform="matrix(1.00062 0 0 1 235.459 147.392)"/><path d="M107.181 342.439 107.681 345.539 107.481 345.539 106.981 343.239 105.881 340.14 104.581 340.04 104.581 347.538 105.881 347.738 105.881 345.339 105.381 342.239 105.681 342.239 106.181 344.539 107.181 348.038 108.481 348.138 108.481 340.14 107.181 340.14Z" fill="#FFFFFF" transform="matrix(1.00062 0 0 1 235.459 147.392)"/><path d="M119.179 342.939 119.679 342.839 119.979 343.839 121.178 345.639 122.678 345.139 120.479 342.339C121.278 341.839 121.778 340.94 121.778 339.94 121.778 338.64 120.779 337.74 118.979 338.24L117.979 338.54 117.979 346.738 119.279 346.339 119.279 342.939ZM119.179 339.24C119.979 338.94 120.479 339.54 120.479 340.24 120.479 340.74 120.179 341.539 119.179 341.739L119.179 339.24Z" fill="#FFFFFF" transform="matrix(1.00062 0 0 1 235.459 147.392)"/><path d="M166.77 328.842 166.77 327.642C165.471 328.142 164.371 327.342 164.371 325.042 164.371 322.943 164.971 321.943 166.57 321.943L166.57 320.643C164.471 320.343 162.971 322.143 162.971 325.042 162.971 328.942 164.971 329.642 166.77 328.842Z" fill="#FFFFFF" transform="matrix(1.00062 0 0 1 235.459 147.392)"/><path d="M124.878 341.339C125.478 341.339 125.878 340.94 125.878 340.34 125.878 339.74 125.478 339.34 124.878 339.34 124.278 339.34 123.878 339.74 123.878 340.34 123.778 340.94 124.178 341.339 124.878 341.339Z" fill="#FFFFFF" transform="matrix(1.00062 0 0 1 235.459 147.392)"/><path d="M141.575 336.04 140.075 336.84 140.075 329.442 138.775 329.941 138.775 338.64 141.575 337.44Z" fill="#FFFFFF" transform="matrix(1.00062 0 0 1 235.459 147.392)"/><path d="M134.576 340.44C135.876 340.44 137.376 339.14 137.376 336.54L137.376 330.441 135.876 331.041 135.876 337.24C135.876 338.24 135.376 338.74 134.876 338.74 134.576 338.74 134.376 338.44 134.376 337.94L134.376 331.941 133.076 332.441 133.076 338.64C133.076 339.64 133.576 340.44 134.576 340.44Z" fill="#FFFFFF" transform="matrix(1.00062 0 0 1 235.459 147.392)"/><path d="M129.477 340.64 130.977 340.04 131.277 341.839 132.576 341.339 131.277 333.341 128.977 334.341 127.677 343.239 129.177 342.639 129.477 340.64ZM129.977 335.141 130.277 335.041 130.577 336.94 130.877 338.74 129.577 339.24 129.977 335.141Z" fill="#FFFFFF" transform="matrix(1.00062 0 0 1 235.459 147.392)"/><path d="M110.28 348.138 111.78 348.038 111.78 341.239C112.08 341.239 113.18 341.139 113.18 341.139L113.18 339.74C111.98 340.04 109.881 340.24 108.881 340.24L108.881 341.539 110.18 341.439 110.18 348.138Z" fill="#FFFFFF" transform="matrix(1.00062 0 0 1 235.459 147.392)"/><path d="M233.859 339.14C234.458 339.14 234.858 338.74 234.858 338.14 234.858 337.54 234.458 337.14 233.859 337.14 233.259 337.14 232.859 337.54 232.859 338.14 232.859 338.74 233.259 339.14 233.859 339.14Z" fill="#FFFFFF" transform="matrix(1.00062 0 0 1 235.459 147.392)"/><path d="M230.959 339.94 228.859 339.24 228.859 336.64 230.659 337.34 230.659 336.04 228.859 335.34 228.859 333.241 230.959 334.141 230.959 332.841 227.56 331.241 227.56 340.04 230.959 341.339Z" fill="#FFFFFF" transform="matrix(1.00062 0 0 1 235.459 147.392)"/><path d="M239.957 345.039 241.257 337.24 239.957 336.64 239.158 341.339 239.058 343.539 238.658 343.339 238.658 341.139 237.958 335.94 236.558 335.241 237.658 344.139Z" fill="#FFFFFF" transform="matrix(1.00062 0 0 1 235.459 147.392)"/><path d="M223.96 335.241 224.46 335.241 224.56 336.04 225.56 339.14 227.36 339.94 225.46 334.941C226.26 334.541 226.46 333.441 226.46 332.841 226.46 331.541 225.96 330.541 223.86 329.741L222.561 329.242 222.561 338.04 223.86 338.54 223.86 335.241ZM223.96 331.141C224.76 331.441 225.26 331.741 225.26 332.841 225.26 333.841 224.46 334.241 223.96 334.041L223.96 331.141Z" fill="#FFFFFF" transform="matrix(1.00062 0 0 1 235.459 147.392)"/><path d="M245.057 345.339 243.057 344.739 243.057 342.339 244.557 342.839 244.557 341.539 243.057 341.139 243.057 339.04 245.057 339.74 245.057 338.44 241.757 337.34 241.757 345.539 245.057 346.738Z" fill="#FFFFFF" transform="matrix(1.00062 0 0 1 235.459 147.392)"/><path d="M252.855 348.538C254.155 348.538 255.055 347.538 255.055 345.739L255.055 340.24 253.655 340.24 253.655 346.039C253.655 346.838 253.155 347.038 252.855 347.038 252.355 347.038 252.055 346.639 252.055 345.739L252.055 340.04 250.556 339.74 250.556 345.639C250.456 347.738 251.555 348.538 252.855 348.538Z" fill="#FFFFFF" transform="matrix(1.00062 0 0 1 235.459 147.392)"/><path d="M257.354 345.139 256.954 342.039 257.154 342.039 258.254 346.439 259.254 346.239 260.154 341.539 260.454 341.439 260.054 344.439 260.054 346.938 261.354 346.339 261.354 339.34 259.754 339.64 258.954 342.939 258.854 344.739 258.554 344.739 258.454 343.139 257.454 340.04 256.055 340.14 256.055 348.038 257.354 347.838Z" fill="#FFFFFF" transform="matrix(1.00062 0 0 1 235.459 147.392)"/><path d="M216.262 335.241 216.762 333.441 218.261 334.041 218.261 335.94 221.861 337.44 221.861 335.94 219.761 335.141 219.761 332.841 221.261 333.441 221.261 332.141 219.761 331.541 219.761 329.442 221.861 330.341 221.861 328.942 217.361 327.142 215.062 334.741 216.262 335.241ZM217.661 330.241 218.061 328.542 218.361 328.642 218.361 332.741 217.161 332.241 217.661 330.241Z" fill="#FFFFFF" transform="matrix(1.00062 0 0 1 235.459 147.392)"/><path d="M247.156 344.539 247.656 344.539 247.756 345.139 248.656 347.538 250.156 347.938 248.656 344.039C249.156 343.739 249.656 342.839 249.656 341.939 249.656 340.44 248.856 339.24 247.356 338.84L245.856 338.44 245.856 346.838 247.156 347.138 247.156 344.539ZM247.156 340.44C247.956 340.44 248.456 341.039 248.456 341.839 248.456 342.839 247.956 343.339 247.156 343.339L247.156 340.44Z" fill="#FFFFFF" transform="matrix(1.00062 0 0 1 235.459 147.392)"/><path d="M102.082 346.439C102.482 346.738 102.882 346.838 103.582 347.038L103.582 339.74 102.082 339.34 102.082 346.439Z" fill="#FFFFFF" transform="matrix(1.00062 0 0 1 235.459 147.392)"/><path d="M181.468 325.742 179.668 325.842 179.668 323.243 181.268 323.243 181.268 322.043 179.668 322.143 179.668 319.943 181.468 319.843 181.468 318.543 178.368 318.643 178.368 327.142 181.468 327.042Z" fill="#FFFFFF" transform="matrix(1.00062 0 0 1 235.459 147.392)"/><path d="M184.067 324.342 183.767 320.743 184.067 320.743 184.567 323.243 185.067 325.342 186.167 325.342 186.667 323.243 187.167 320.943 187.367 320.943 187.167 324.542 187.167 327.242 188.467 327.442 188.467 319.043 186.867 318.943 185.867 322.043 185.567 324.043 185.467 324.043 185.367 322.043 184.267 318.643 182.768 318.543 182.768 327.042 184.067 327.042Z" fill="#FFFFFF" transform="matrix(1.00062 0 0 1 235.459 147.392)"/><path d="M168.97 326.542 170.37 326.142 170.67 327.942 172.169 327.642 170.67 319.643 168.37 320.143 167.37 328.642 168.77 328.242 168.97 326.542ZM169.37 320.943 169.67 320.943 170.17 324.842 169.17 325.142 169.37 320.943Z" fill="#FFFFFF" transform="matrix(1.00062 0 0 1 235.459 147.392)"/><path d="M177.369 323.043C177.369 319.943 175.969 318.943 173.869 319.143L172.969 319.243 172.969 327.442 173.969 327.342C175.769 327.142 177.369 326.142 177.369 323.043ZM174.269 320.443C175.269 320.143 176.069 321.243 176.069 323.243 176.069 324.742 175.269 326.042 174.269 326.042L174.269 320.443Z" fill="#FFFFFF" transform="matrix(1.00062 0 0 1 235.459 147.392)"/><path d="M190.766 319.443 189.466 319.143 189.466 327.542 190.766 327.642Z" fill="#FFFFFF" transform="matrix(1.00062 0 0 1 235.459 147.392)"/><path d="M212.862 334.141C214.062 334.541 215.162 333.641 215.162 332.341L215.162 326.242 213.862 325.842 213.862 332.041C213.862 332.541 213.562 332.941 213.062 332.841 212.462 332.741 212.062 332.041 212.062 331.041L212.062 325.242 210.763 324.742 210.763 330.841C210.863 332.841 211.562 333.741 212.862 334.141Z" fill="#FFFFFF" transform="matrix(1.00062 0 0 1 235.459 147.392)"/><path d="M207.463 332.041 207.763 332.041 210.063 332.841 210.063 331.341 209.063 331.041 208.263 331.341C209.263 330.841 209.563 329.841 209.563 328.242 209.563 325.142 208.763 323.343 206.963 323.343 205.464 323.343 204.664 325.142 204.664 327.442 204.664 330.241 205.464 332.041 207.463 332.041ZM207.063 324.742C207.963 324.742 208.263 326.142 208.263 327.742 208.263 329.542 207.963 330.841 207.263 330.841 206.263 330.841 205.963 329.342 205.963 327.742 205.963 325.842 206.163 324.742 207.063 324.742Z" fill="#FFFFFF" transform="matrix(1.00062 0 0 1 235.459 147.392)"/><path d="M201.064 326.842C201.664 326.842 202.064 326.442 202.064 325.842 202.064 325.242 201.664 324.842 201.064 324.842 200.464 324.842 200.065 325.242 200.065 325.842 200.065 326.542 200.364 326.842 201.064 326.842Z" fill="#FFFFFF" transform="matrix(1.00062 0 0 1 235.459 147.392)"/><path d="M193.166 326.342 194.565 326.642 194.565 328.342 197.865 329.142 197.865 327.842 195.765 327.442 195.765 324.942 197.565 325.342 197.565 324.043 195.765 323.743 195.765 321.643 197.865 322.143 197.865 320.943C196.865 320.643 194.765 320.143 193.766 320.043L191.166 327.742 192.566 328.042 193.166 326.342ZM194.266 322.943 194.665 321.443 194.765 321.443 194.665 322.943 194.665 325.342 193.466 325.242 194.266 322.943Z" fill="#FFFFFF" transform="matrix(1.00062 0 0 1 235.459 147.392)"/><path d="M148.474 133.576C148.474 135.876 146.674 137.676 143.874 137.676 141.575 137.676 139.975 136.176 139.775 133.576 141.075 134.576 143.874 133.876 144.374 135.876 144.674 133.776 147.174 133.776 148.274 132.277 148.474 132.876 148.474 133.076 148.474 133.576Z" fill="#FFFFFF" transform="matrix(1.00062 0 0 1 235.459 147.392)"/><path d="M150.073 137.776C150.073 140.575 147.474 142.175 144.174 142.175 141.575 142.175 140.075 141.175 139.775 138.076 141.275 139.575 144.974 138.575 145.474 140.875 145.474 138.275 149.074 138.076 149.873 136.476 150.073 136.676 150.073 137.176 150.073 137.776Z" fill="#FFFFFF" transform="matrix(1.00062 0 0 1 235.459 147.392)"/><path d="M143.874 133.376C141.775 133.376 140.275 131.877 140.275 130.277 140.275 129.777 140.275 129.477 140.575 128.977 141.575 130.277 143.874 129.777 144.174 132.277 143.874 129.677 146.974 129.177 147.474 128.677 147.574 131.277 146.174 133.376 143.874 133.376Z" fill="#FFFFFF" transform="matrix(1.00062 0 0 1 235.459 147.392)"/><path d="M152.373 141.875C152.373 145.174 148.774 147.274 145.674 147.274 143.375 147.274 141.775 145.974 141.275 143.674 141.675 144.074 142.575 143.974 145.174 143.974 146.174 143.974 147.474 143.974 147.974 145.274L147.974 144.274C147.974 141.675 151.573 140.975 151.873 139.375 152.073 140.275 152.373 141.075 152.373 141.875Z" fill="#FFFFFF" transform="matrix(1.00062 0 0 1 235.459 147.392)"/><path d="M143.874 129.277C143.075 128.977 142.075 127.977 142.075 126.478 142.075 124.978 143.075 123.178 144.374 121.878 144.374 123.978 145.374 125.178 145.374 126.778 145.374 127.977 144.374 128.977 143.874 129.277Z" fill="#FFFFFF" transform="matrix(1.00062 0 0 1 235.459 147.392)"/><path d="M200.764 79.2859C207.163 79.2859 215.162 85.4848 216.262 102.482 213.962 102.482 213.162 100.682 212.962 97.8826 211.462 87.0845 205.764 81.8855 201.664 81.8855 193.666 81.8855 200.164 94.4832 191.866 96.2829 191.866 98.3825 191.366 100.882 190.366 100.882 189.066 100.882 188.567 98.5825 188.067 96.7828 188.067 99.5823 187.267 101.982 186.267 101.982 185.467 101.982 184.767 99.6823 184.167 97.5827 184.167 100.182 182.868 102.782 181.568 102.782 180.568 102.782 179.268 100.182 179.268 97.5827 178.768 99.6823 177.968 101.982 177.169 101.982 176.169 101.982 175.369 99.6823 175.369 96.7828 174.869 98.5825 174.369 100.882 173.069 100.882 172.069 100.882 171.57 98.2826 171.57 96.2829 163.371 94.4832 169.77 81.8855 161.771 81.8855 157.672 81.8855 151.973 87.0845 150.473 97.8826 150.173 100.682 149.473 102.482 147.174 102.482 148.174 85.4848 156.172 79.2859 162.671 79.2859 172.169 79.2859 167.27 91.0838 171.67 91.0838 173.469 91.0838 174.969 88.9842 176.569 86.4847 176.269 86.9846 176.269 87.4845 176.269 87.9844 176.269 90.084 178.368 91.2838 181.668 91.2838 185.267 91.2838 187.367 89.984 187.367 87.9844 187.367 87.4845 187.367 86.9846 187.067 86.4847 188.567 89.0842 189.866 91.0838 191.966 91.0838 195.865 91.0838 191.266 79.2859 200.764 79.2859Z" fill="#FFFFFF" transform="matrix(1.00062 0 0 1 235.459 147.392)"/><path d="M149.274 127.177C150.573 126.678 151.573 125.378 151.573 121.778 153.073 128.777 154.673 133.376 156.472 137.776 157.772 141.075 159.072 143.175 159.072 144.174 159.072 144.974 158.772 145.174 158.272 145.474 154.473 140.775 151.373 133.876 149.274 127.177Z" fill="#FFFFFF" transform="matrix(1.00062 0 0 1 235.459 147.392)"/><path d="M155.972 97.2827C155.572 100.382 154.173 101.682 152.073 101.682 152.373 97.0828 153.573 92.6836 154.873 89.8841 156.672 85.9847 159.772 83.6852 161.271 83.6852 161.771 83.6852 162.271 83.9851 162.271 84.485 162.271 84.9849 161.471 85.2849 160.472 86.2847 158.572 88.2843 156.672 92.1836 155.972 97.2827Z" fill="#FFFFFF" transform="matrix(1.00062 0 0 1 235.459 147.392)"/><path d="M152.073 103.782C153.373 103.782 154.673 102.982 155.372 99.8823 155.072 101.982 155.072 103.782 155.072 105.581L155.072 110.78C155.072 112.58 154.773 114.88 152.473 115.18 152.073 110.98 152.073 107.081 152.073 103.782Z" fill="#FFFFFF" transform="matrix(1.00062 0 0 1 235.459 147.392)"/><path d="M152.873 117.079C154.373 117.079 155.672 115.779 155.672 112.68 156.972 124.278 160.072 130.677 161.571 135.076 162.371 137.376 162.871 139.175 162.871 140.475 162.871 141.275 162.571 141.775 161.871 141.975 158.072 135.976 154.173 126.378 152.873 117.079Z" fill="#FFFFFF" transform="matrix(1.00062 0 0 1 235.459 147.392)"/><path d="M157.272 103.482C158.572 103.482 159.872 102.682 160.572 99.3824 160.272 101.682 160.072 103.482 160.072 104.781 160.072 106.581 160.372 108.881 160.372 110.18 160.372 112.28 160.072 114.28 157.772 114.78 157.272 111.98 156.972 109.381 156.972 106.781 156.972 105.581 156.972 104.481 157.272 103.482Z" fill="#FFFFFF" transform="matrix(1.00062 0 0 1 235.459 147.392)"/><path d="M160.871 97.2827C160.372 100.382 159.572 101.382 157.572 101.382 158.072 94.6832 159.372 91.0838 161.671 87.7844 162.171 86.9846 162.971 86.2847 163.771 86.2847 164.071 86.2847 164.571 86.5846 164.571 87.0845 164.571 87.5845 164.271 87.8844 164.071 88.3843 162.171 90.5839 161.371 94.4832 160.871 97.2827Z" fill="#FFFFFF" transform="matrix(1.00062 0 0 1 235.459 147.392)"/><path d="M157.772 116.579C159.272 116.279 160.372 115.08 160.572 111.98 161.371 119.479 163.871 126.877 165.771 131.777 166.57 133.876 166.77 135.376 166.77 136.676 166.77 137.476 166.47 137.976 165.971 138.475 162.171 133.076 158.772 122.778 157.772 116.579Z" fill="#FFFFFF" transform="matrix(1.00062 0 0 1 235.459 147.392)"/><path d="M162.171 101.382C163.671 101.382 164.971 100.082 165.471 97.7827 165.171 99.8823 165.171 101.382 165.171 102.982 165.171 105.281 165.471 107.381 165.471 108.681 165.471 110.98 163.971 112.58 162.371 112.58 162.071 109.98 162.071 107.981 162.071 105.881L162.071 101.382Z" fill="#FFFFFF" transform="matrix(1.00062 0 0 1 235.459 147.392)"/><path d="M164.471 91.8837C164.971 91.8837 165.471 92.6836 165.471 94.4832 165.471 96.7828 164.671 99.3824 162.371 99.3824 163.171 92.8835 163.671 91.8837 164.471 91.8837Z" fill="#FFFFFF" transform="matrix(1.00062 0 0 1 235.459 147.392)"/><path d="M162.671 114.78C163.971 114.48 165.471 113.78 165.771 110.68 166.271 118.179 168.37 124.578 169.67 129.177 170.47 131.477 170.97 133.076 170.97 134.376 170.97 134.876 170.67 135.676 170.17 135.876 166.57 130.477 163.671 120.979 162.671 114.78Z" fill="#FFFFFF" transform="matrix(1.00062 0 0 1 235.459 147.392)"/><path d="M169.87 100.682C169.87 103.982 170.17 106.581 170.17 108.181 170.17 110.48 168.87 112.08 167.87 112.08 167.37 108.781 167.07 105.881 167.07 102.782 167.07 98.8825 167.57 98.1826 168.37 98.1826 169.07 98.0826 169.87 98.8825 169.87 100.682Z" fill="#FFFFFF" transform="matrix(1.00062 0 0 1 235.459 147.392)"/><path d="M170.87 143.674 171.17 141.875 172.669 139.275 169.87 141.575 169.07 142.875 168.57 142.875 168.87 141.075 170.97 139.275 168.37 140.075 167.87 140.875 167.07 140.875 168.07 139.375 173.269 137.276 174.069 131.577C174.369 131.877 174.569 131.877 175.069 131.877 175.869 131.877 176.069 131.877 176.369 131.577L175.069 137.276 178.368 139.375 178.868 141.475 178.368 141.475 177.069 140.175 174.769 139.375 172.469 142.175 171.47 143.674 170.87 143.674Z" fill="#FFFFFF" transform="matrix(1.00062 0 0 1 235.459 147.392)"/><path d="M167.87 113.78C168.87 113.78 170.17 112.78 170.47 110.18 170.77 112.78 171.77 117.179 171.77 118.979 171.77 120.779 170.97 122.278 169.97 122.278 168.87 119.979 168.37 116.379 167.87 113.78Z" fill="#FFFFFF" transform="matrix(1.00062 0 0 1 235.459 147.392)"/><path d="M173.969 124.078C173.969 125.078 174.469 126.178 175.469 126.178 176.269 126.178 176.969 125.378 177.568 124.378 178.568 125.378 179.068 127.177 179.068 130.577 177.768 130.277 176.769 129.077 176.769 127.477 176.469 129.577 175.769 130.577 174.969 130.577 174.469 130.577 174.169 129.777 174.169 128.777L174.169 126.977C173.869 127.977 172.369 129.277 171.07 128.777 171.969 126.378 172.969 124.578 173.969 124.078Z" fill="#FFFFFF" transform="matrix(1.00062 0 0 1 235.459 147.392)"/><path d="M176.069 118.179C178.868 118.179 179.668 119.179 179.668 123.078L179.668 124.578C178.368 124.578 177.568 123.278 177.369 121.978 177.069 123.778 176.369 124.578 175.869 124.578 175.069 124.578 174.869 124.078 174.869 122.778L174.869 121.278C173.869 123.078 172.769 123.078 172.069 123.078 172.969 119.179 173.969 118.179 176.069 118.179Z" fill="#FFFFFF" transform="matrix(1.00062 0 0 1 235.459 147.392)"/><path d="M181.468 104.981C182.968 104.981 184.067 103.482 184.067 101.382 184.567 103.482 185.567 104.182 186.367 104.182 187.367 104.182 188.467 102.382 188.467 100.282 188.767 102.082 189.766 103.582 191.066 103.582 191.066 106.381 190.566 107.981 189.266 107.981 188.467 107.981 188.267 106.681 187.767 104.681 187.767 106.781 186.767 108.781 185.667 108.781 184.867 108.781 184.367 107.981 183.867 105.681 183.567 107.981 182.568 109.781 181.568 109.781 180.768 109.781 179.468 107.981 179.468 105.681 178.968 107.981 178.468 108.781 177.668 108.781 176.669 108.781 175.569 106.681 175.569 104.681 175.069 106.781 174.769 107.981 174.069 107.981 172.769 107.981 172.269 106.481 172.269 103.582 173.269 103.582 174.569 102.082 174.869 100.282 174.869 102.382 175.869 104.182 176.969 104.182 177.768 104.182 178.768 103.382 179.268 101.382 179.168 103.482 180.168 104.981 181.468 104.981Z" fill="#FFFFFF" transform="matrix(1.00062 0 0 1 235.459 147.392)"/><path d="M181.468 112.78C182.768 112.78 184.067 110.98 184.067 108.881 184.567 110.98 185.067 111.98 186.167 111.98 187.167 111.98 187.967 110.18 187.967 107.881 189.466 110.18 190.066 112.48 190.066 114.08 190.066 115.879 189.566 116.379 189.066 116.379 188.267 116.379 187.267 115.38 186.967 113.08 186.967 115.879 186.167 117.179 185.167 117.179 184.667 117.179 183.867 116.179 183.367 114.38 183.367 116.679 182.568 118.279 181.568 118.279 180.768 118.279 180.068 116.779 180.068 114.38 179.568 116.179 178.768 117.179 178.268 117.179 177.269 117.179 176.469 115.879 176.469 113.08 176.169 115.38 175.169 116.379 174.369 116.379 173.869 116.379 173.369 115.879 173.369 114.08 173.369 112.58 173.869 110.18 175.469 107.881 175.469 110.18 176.269 111.98 177.269 111.98 178.268 111.98 178.768 110.98 179.368 108.881 179.168 110.98 180.468 112.78 181.468 112.78Z" fill="#FFFFFF" transform="matrix(1.00062 0 0 1 235.459 147.392)"/><path d="M175.169 154.573C175.169 153.573 176.069 152.673 178.168 151.573 177.668 152.573 177.169 153.073 176.369 153.873 177.868 152.873 177.668 153.073 178.468 152.573 177.469 154.873 176.569 155.172 176.069 155.172 175.569 155.172 175.169 154.973 175.169 154.573Z" fill="#FFFFFF" transform="matrix(1.00062 0 0 1 235.459 147.392)"/><path d="M176.969 156.872C176.969 155.872 177.768 154.573 179.568 152.773 179.068 154.273 178.768 154.873 178.268 156.372 179.068 155.072 179.568 154.573 180.068 153.773 179.768 157.372 178.668 157.972 177.868 157.972 177.369 158.072 176.969 157.672 176.969 156.872Z" fill="#FFFFFF" transform="matrix(1.00062 0 0 1 235.459 147.392)"/><path d="M181.468 162.471C180.468 162.471 179.668 161.971 179.668 160.172 179.668 158.872 179.968 157.772 180.668 155.372 180.968 156.372 181.468 157.472 181.468 158.972 181.468 157.472 181.968 156.372 182.268 155.372 183.068 157.672 183.267 158.872 183.267 160.172 183.267 161.971 182.468 162.471 181.468 162.471Z" fill="#FFFFFF" transform="matrix(1.00062 0 0 1 235.459 147.392)"/><path d="M184.167 82.7853C184.167 83.9851 184.567 84.9849 184.567 85.1849 184.567 86.1847 183.068 86.9846 181.468 86.9846 180.468 86.9846 178.868 86.1847 178.868 85.4848 178.868 84.685 179.768 82.8853 179.768 81.3856 179.768 81.0856 179.768 80.8857 179.468 80.3857 179.968 80.7857 180.668 80.8857 181.268 80.8857 181.868 80.8857 182.768 80.5857 183.068 80.0858 179.968 80.9856 178.868 79.186 178.568 77.6862 177.369 78.1861 176.269 77.7862 175.969 76.8864 175.469 77.1863 174.769 77.2863 174.269 77.6862 173.769 75.4866 174.569 74.9867 177.269 74.5868 176.869 74.1868 176.769 73.6869 176.769 73.287 176.769 71.9872 178.168 71.3873 181.368 71.3873 182.768 71.3873 183.667 71.8872 183.467 72.5871 183.467 73.087 183.167 73.087 183.167 73.387 184.867 73.8869 185.367 75.2866 185.367 76.6864 185.467 79.186 184.167 79.6859 184.167 82.7853ZM181.468 75.3866C181.968 75.3866 182.368 75.0867 182.368 74.5868 182.368 74.0869 181.968 73.7869 181.468 73.7869 180.968 73.7869 180.568 74.0869 180.568 74.5868 180.568 75.1867 180.968 75.3866 181.468 75.3866Z" fill="#FFFFFF" transform="matrix(1.00062 0 0 1 235.459 147.392)"/><path d="M185.067 158.072C184.267 158.072 183.167 157.472 182.868 153.873 183.367 154.673 183.867 155.172 184.667 156.472 184.167 154.973 183.867 154.373 183.367 152.873 185.167 154.673 185.967 155.972 185.967 156.972 185.967 157.672 185.567 158.072 185.067 158.072Z" fill="#FFFFFF" transform="matrix(1.00062 0 0 1 235.459 147.392)"/><path d="M188.467 121.278 188.467 122.778C188.467 124.078 188.167 124.578 187.467 124.578 186.967 124.578 186.167 123.778 185.667 121.978 185.667 123.278 184.867 124.578 183.567 124.578L183.567 123.078C183.567 119.179 184.367 118.179 187.167 118.179 189.266 118.179 190.266 119.179 191.266 123.078 190.466 123.078 189.466 123.078 188.467 121.278Z" fill="#FFFFFF" transform="matrix(1.00062 0 0 1 235.459 147.392)"/><path d="M188.966 126.877 188.966 128.677C188.966 129.677 188.667 130.477 188.167 130.477 187.367 130.477 186.667 129.477 186.367 127.377 186.067 128.877 185.067 130.177 184.067 130.477 184.067 127.177 184.367 125.278 185.367 124.578 185.867 125.878 186.867 126.078 187.667 126.078 188.667 126.078 189.466 125.278 189.466 124.278 190.466 125.078 191.266 126.378 191.766 128.677 190.766 129.277 189.166 127.977 188.966 126.877Z" fill="#FFFFFF" transform="matrix(1.00062 0 0 1 235.459 147.392)"/><path d="M191.766 143.674 190.766 142.175 188.467 139.375 186.167 140.175 184.867 141.475 184.367 141.475 184.867 139.375 188.167 137.276 186.867 131.577C187.167 131.877 187.367 131.877 188.167 131.877 188.667 131.877 188.966 131.877 189.166 131.577L189.666 137.276 195.065 139.375 195.865 140.875 195.365 140.875 194.865 140.075 192.266 139.275 194.366 141.075 194.665 142.875 194.166 142.875 193.366 141.575 190.566 139.275 192.066 141.875 192.366 143.674 191.766 143.674Z" fill="#FFFFFF" transform="matrix(1.00062 0 0 1 235.459 147.392)"/><path d="M186.967 155.272C186.467 155.272 185.567 154.973 184.567 152.673 185.367 153.173 185.067 152.973 186.667 153.973 185.867 153.173 185.367 152.673 184.867 151.673 186.967 152.673 187.867 153.573 187.867 154.673 187.767 154.973 187.567 155.272 186.967 155.272Z" fill="#FFFFFF" transform="matrix(1.00062 0 0 1 235.459 147.392)"/><path d="M195.365 113.78C194.865 116.379 194.366 119.979 193.266 122.278 192.266 122.278 191.466 120.779 191.466 118.979 191.466 117.179 192.466 112.78 192.766 110.18 192.766 112.78 194.366 113.78 195.365 113.78Z" fill="#FFFFFF" transform="matrix(1.00062 0 0 1 235.459 147.392)"/><path d="M200.564 114.78C199.565 120.979 196.665 130.477 193.066 135.876 192.566 135.576 192.266 134.876 192.266 134.376 192.266 133.076 192.766 131.577 193.566 129.177 194.865 124.578 196.865 118.079 197.465 110.68 197.665 113.78 199.265 114.58 200.564 114.78Z" fill="#FFFFFF" transform="matrix(1.00062 0 0 1 235.459 147.392)"/><path d="M193.366 100.682C193.366 98.8825 194.166 98.0826 194.865 98.0826 195.665 98.0826 195.865 98.8825 195.865 102.682 195.865 105.781 195.865 108.581 195.365 111.98 194.366 111.98 193.066 110.48 193.066 108.081 193.066 106.581 193.366 103.982 193.366 100.682Z" fill="#FFFFFF" transform="matrix(1.00062 0 0 1 235.459 147.392)"/><path d="M205.464 116.579C204.464 122.778 201.064 133.076 197.265 138.475 196.765 137.976 196.465 137.476 196.465 136.676 196.465 135.376 196.765 133.876 197.465 131.777 199.265 126.877 201.864 119.379 202.664 111.98 202.864 115.08 203.864 116.379 205.464 116.579Z" fill="#FFFFFF" transform="matrix(1.00062 0 0 1 235.459 147.392)"/><path d="M198.765 91.8837C199.565 91.8837 200.065 92.8835 200.864 99.3824 198.565 99.3824 197.765 96.7828 197.765 94.4832 197.665 92.6836 197.965 91.8837 198.765 91.8837Z" fill="#FFFFFF" transform="matrix(1.00062 0 0 1 235.459 147.392)"/><path d="M201.064 101.382 201.064 105.781C201.064 107.881 201.064 109.881 200.764 112.48 199.265 112.48 197.665 110.98 197.665 108.581 197.665 107.281 197.965 105.281 197.965 102.882 197.965 101.382 197.965 99.7823 197.665 97.6827 198.165 100.182 199.465 101.382 201.064 101.382Z" fill="#FFFFFF" transform="matrix(1.00062 0 0 1 235.459 147.392)"/><path d="M202.364 97.2827C201.864 94.4832 201.064 90.5839 199.265 88.2843 198.965 87.7844 198.765 87.4845 198.765 86.9846 198.765 86.4847 199.265 86.1847 199.565 86.1847 200.364 86.1847 201.064 86.9846 201.664 87.6844 203.964 90.9839 205.264 94.6832 205.764 101.282 203.664 101.382 202.864 100.382 202.364 97.2827Z" fill="#FFFFFF" transform="matrix(1.00062 0 0 1 235.459 147.392)"/><path d="M210.263 117.079C208.963 126.378 205.064 135.876 201.264 142.075 200.464 141.775 199.965 141.275 199.965 140.575 199.965 139.275 200.764 137.476 201.464 135.176 202.964 130.777 206.063 124.378 207.363 112.78 207.463 115.879 208.763 117.079 210.263 117.079Z" fill="#FFFFFF" transform="matrix(1.00062 0 0 1 235.459 147.392)"/><path d="M207.263 97.2827C206.663 92.0837 204.664 88.2843 202.664 86.1847 201.664 85.1849 200.864 84.8849 200.864 84.385 200.864 83.8851 201.364 83.5852 201.864 83.5852 203.364 83.5852 206.263 85.8848 208.263 89.7841 209.563 92.5836 210.863 96.9828 211.063 101.582 209.063 101.682 207.563 100.382 207.263 97.2827Z" fill="#FFFFFF" transform="matrix(1.00062 0 0 1 235.459 147.392)"/><path d="M205.963 103.482C206.263 104.481 206.263 105.581 206.263 106.781 206.263 109.381 205.963 111.98 205.464 114.78 203.164 114.28 202.864 112.18 202.864 110.18 202.864 108.881 203.164 106.581 203.164 104.781 203.164 103.482 202.864 101.682 202.664 99.3824 203.364 102.682 204.664 103.482 205.963 103.482Z" fill="#FFFFFF" transform="matrix(1.00062 0 0 1 235.459 147.392)"/><path d="M213.962 127.177C211.862 133.876 208.763 140.775 204.964 145.474 204.464 145.174 204.164 144.974 204.164 144.174 204.164 143.175 205.464 141.075 206.763 137.776 208.263 133.376 210.063 128.777 211.662 121.778 211.562 125.378 212.362 126.678 213.962 127.177Z" fill="#FFFFFF" transform="matrix(1.00062 0 0 1 235.459 147.392)"/><path d="M211.063 103.782C211.063 107.081 211.063 110.98 210.563 115.08 208.263 114.78 207.963 112.48 207.963 110.68L207.963 105.481C207.963 103.682 207.963 101.882 207.663 99.7823 208.263 102.982 209.763 103.782 211.063 103.782Z" fill="#FFFFFF" transform="matrix(1.00062 0 0 1 235.459 147.392)"/><path d="M210.863 141.875C210.863 141.075 211.163 140.375 211.362 139.275 211.662 140.775 215.262 141.575 215.262 144.174L215.262 145.174C215.762 143.874 217.061 143.874 218.061 143.874 220.661 143.874 221.561 143.974 221.961 143.575 221.461 145.874 219.861 147.174 217.561 147.174 214.462 147.274 210.863 145.174 210.863 141.875Z" fill="#FFFFFF" transform="matrix(1.00062 0 0 1 235.459 147.392)"/><path d="M216.462 104.781 216.462 108.381C216.462 113.28 215.962 119.679 214.362 125.078 213.062 124.578 212.062 123.278 212.062 120.479 212.062 119.679 212.062 118.679 212.362 117.879 212.662 116.079 213.162 111.68 213.162 106.581 213.162 104.781 213.162 102.682 212.862 100.682 213.662 103.982 215.162 104.781 216.462 104.781Z" fill="#FFFFFF" transform="matrix(1.00062 0 0 1 235.459 147.392)"/><path d="M213.162 137.776C213.162 137.276 213.162 136.776 213.462 136.476 214.262 137.976 217.861 138.275 217.861 140.875 218.361 138.575 221.961 139.575 223.56 138.076 223.26 141.175 221.761 142.175 219.161 142.175 215.762 142.075 213.162 140.575 213.162 137.776Z" fill="#FFFFFF" transform="matrix(1.00062 0 0 1 235.459 147.392)"/><path d="M214.662 133.576C214.662 133.076 214.662 132.776 214.962 132.277 215.962 133.776 218.561 133.776 218.561 135.876 219.361 133.776 222.161 134.576 223.46 133.576 223.16 136.176 221.661 137.676 219.361 137.676 216.462 137.776 214.662 135.976 214.662 133.576Z" fill="#FFFFFF" transform="matrix(1.00062 0 0 1 235.459 147.392)"/><path d="M219.361 133.376C217.061 133.376 215.662 131.277 215.762 128.777 216.262 129.277 219.361 129.777 219.061 132.377 219.361 129.777 221.661 130.277 222.66 129.077L222.66 130.377C222.66 131.777 221.361 133.376 219.361 133.376Z" fill="#FFFFFF" transform="matrix(1.00062 0 0 1 235.459 147.392)"/><path d="M219.361 129.277C218.561 128.977 217.861 127.977 217.861 126.678 217.861 125.178 218.861 123.878 218.861 121.778 220.161 123.078 221.161 124.878 221.161 126.378 221.161 127.977 220.061 128.977 219.361 129.277Z" fill="#FFFFFF" transform="matrix(1.00062 0 0 1 235.459 147.392)"/><path d="M146.674 104.881C147.974 104.881 149.473 104.082 150.273 100.782 149.973 102.882 149.973 104.881 149.973 106.681 149.973 111.88 150.473 116.179 150.773 117.979 151.073 118.779 151.073 119.779 151.073 120.579 151.073 123.378 150.073 124.678 148.774 125.178 147.274 119.779 146.474 113.38 146.474 108.481 146.374 107.181 146.374 105.881 146.674 104.881Z" fill="#FFFFFF" transform="matrix(1.00062 0 0 1 235.459 147.392)"/></g></svg>